<svg width="20" height="20" viewBox="0 0 20 20" fill="none" xmlns="http://www.w3.org/2000/svg">
<path d="M9.75003 2.33752C9.82888 2.3031 9.91399 2.28534 10 2.28534C10.0861 2.28534 10.1712 2.3031 10.25 2.33752C13.3317 3.68452 16.2713 5.33576 19.025 7.26668C19.1221 7.33474 19.1978 7.42899 19.2433 7.53843C19.2888 7.64788 19.3022 7.768 19.2821 7.8848C19.2619 8.0016 19.2089 8.11026 19.1293 8.19809C19.0497 8.28592 18.9468 8.3493 18.8325 8.38085C15.9737 9.17043 13.2074 10.2633 10.5809 11.6409L10.5784 11.6425C10.4834 11.6925 10.3892 11.7417 10.295 11.7925C10.2044 11.841 10.1032 11.8663 10.0004 11.8663C9.89768 11.8663 9.7965 11.841 9.70586 11.7925C8.57933 11.1913 7.42621 10.6413 6.25003 10.1442V9.95752C6.25003 9.84835 6.30586 9.75085 6.39336 9.69835C7.65117 8.93611 8.94519 8.23529 10.2709 7.59835C10.4203 7.52652 10.535 7.39828 10.5899 7.24185C10.6447 7.08541 10.6352 6.91359 10.5634 6.76418C10.4915 6.61478 10.3633 6.50003 10.2069 6.44517C10.0504 6.39032 9.8786 6.39985 9.7292 6.47168C8.36735 7.12609 7.03801 7.8461 5.74586 8.62918C5.56203 8.7407 5.40344 8.88929 5.2802 9.06548C5.15695 9.24167 5.07175 9.44159 5.03003 9.65252C3.76437 9.16551 2.4756 8.74084 1.16836 8.38002C1.05411 8.34847 0.951183 8.28508 0.871591 8.19725C0.791998 8.10942 0.739022 8.00077 0.718842 7.88397C0.698662 7.76717 0.712111 7.64704 0.757619 7.5376C0.803128 7.42815 0.878819 7.33391 0.975864 7.26585C3.72935 5.33528 6.66864 3.68432 9.75003 2.33752Z" fill="white"/>
<path d="M10.8833 12.8942C12.9302 11.8006 15.0675 10.8855 17.2716 10.1592C17.3833 11.3375 17.455 12.5283 17.4841 13.7292C17.4874 13.855 17.4525 13.979 17.3841 14.0847C17.3157 14.1904 17.2169 14.273 17.1008 14.3217C14.7385 15.3083 12.4767 16.52 10.3466 17.94C10.244 18.0084 10.1234 18.0449 9.99997 18.0449C9.87659 18.0449 9.75596 18.0084 9.6533 17.94C7.5235 16.52 5.26196 15.3083 2.89997 14.3217C2.7838 14.2732 2.68498 14.1908 2.61643 14.0852C2.54788 13.9796 2.51281 13.8558 2.5158 13.73C2.54497 12.5283 2.61663 11.3383 2.7283 10.1583C3.4958 10.4117 4.2533 10.6867 4.99997 10.9833V12.0417C4.81991 12.1454 4.66856 12.2924 4.55961 12.4693C4.45065 12.6463 4.38752 12.8476 4.37594 13.0551C4.36436 13.2626 4.40469 13.4697 4.49327 13.6576C4.58186 13.8456 4.71591 14.0085 4.8833 14.1317C4.8083 14.4483 4.6983 14.7592 4.55247 15.0567C4.92913 15.2342 5.3033 15.4183 5.67413 15.6067C5.88317 15.1815 6.03745 14.7315 6.1333 14.2675C6.34404 14.1738 6.52475 14.0236 6.65543 13.8336C6.78611 13.6436 6.86166 13.4211 6.87374 13.1908C6.88582 12.9604 6.83394 12.7313 6.72385 12.5286C6.61376 12.326 6.44975 12.1577 6.24997 12.0425V11.505C7.22339 11.9302 8.17969 12.3936 9.11663 12.8942C9.38844 13.0393 9.69183 13.1153 9.99997 13.1153C10.3081 13.1153 10.6115 13.0393 10.8833 12.8942Z" fill="white"/>
<path d="M3.71842 16.2183C4.06842 15.8692 4.34592 15.4767 4.55176 15.0558C4.92926 15.2342 5.30342 15.4183 5.67426 15.6075C5.40159 16.1613 5.03952 16.6664 4.60259 17.1025C4.48411 17.2129 4.32741 17.273 4.16549 17.2702C4.00357 17.2673 3.84908 17.2017 3.73457 17.0872C3.62006 16.9727 3.55447 16.8182 3.55161 16.6563C3.54875 16.4944 3.60886 16.3377 3.71926 16.2192L3.71842 16.2183Z" fill="white"/>
</svg>
