<svg width="20" height="20" viewBox="0 0 20 20" fill="none" xmlns="http://www.w3.org/2000/svg">
<path d="M1.25 7.2251V14.3751C1.25 15.0381 1.51339 15.674 1.98223 16.1429C2.45107 16.6117 3.08696 16.8751 3.75 16.8751H16.25C16.913 16.8751 17.5489 16.6117 18.0178 16.1429C18.4866 15.674 18.75 15.0381 18.75 14.3751V7.2251L11.31 11.8026C10.916 12.045 10.4626 12.1733 10 12.1733C9.53745 12.1733 9.08396 12.045 8.69 11.8026L1.25 7.2251Z" fill="white"/>
<path d="M18.75 5.75679V5.62512C18.75 4.96208 18.4866 4.3262 18.0178 3.85736C17.5489 3.38851 16.913 3.12512 16.25 3.12512H3.75C3.08696 3.12512 2.45107 3.38851 1.98223 3.85736C1.51339 4.3262 1.25 4.96208 1.25 5.62512V5.75679L9.345 10.7385C9.54198 10.8596 9.76872 10.9238 10 10.9238C10.2313 10.9238 10.458 10.8596 10.655 10.7385L18.75 5.75679Z" fill="white"/>
</svg>
