<svg width="216" height="36" viewBox="0 0 216 36" fill="none" xmlns="http://www.w3.org/2000/svg">
<path d="M101.445 28.6719V35H84.1953V28.6719H101.445ZM87.125 0.875V35H78.8984V0.875H87.125Z" fill="#0D0D0C"/>
<path d="M73.1094 0.875V35H64.9062V0.875H73.1094Z" fill="#EE964A"/>
<path d="M46.1094 8.04688L37.7891 35H28.9531L41.4922 0.875L47.0938 0.875L46.1094 8.04688ZM53 35L44.6562 8.04688L43.5781 0.875L49.25 0.875L61.8594 35H53ZM52.6719 22.2734V28.625H35.1641V22.2734H52.6719Z" fill="#EE964A"/>
<path d="M19.1797 25.9297C19.1797 25.3984 19.1016 24.9219 18.9453 24.5C18.7891 24.0625 18.5 23.6562 18.0781 23.2812C17.6562 22.9062 17.0469 22.5312 16.25 22.1562C15.4688 21.7656 14.4375 21.3594 13.1562 20.9375C11.6562 20.4375 10.2109 19.875 8.82031 19.25C7.42969 18.6094 6.1875 17.8672 5.09375 17.0234C4 16.1641 3.13281 15.1641 2.49219 14.0234C1.85156 12.8672 1.53125 11.5234 1.53125 9.99219C1.53125 8.52344 1.85938 7.20312 2.51562 6.03125C3.17188 4.84375 4.08594 3.83594 5.25781 3.00781C6.44531 2.16406 7.83594 1.52344 9.42969 1.08594C11.0234 0.632812 12.7656 0.40625 14.6562 0.40625C17.1562 0.40625 19.3594 0.84375 21.2656 1.71875C23.1875 2.57812 24.6875 3.80469 25.7656 5.39844C26.8594 6.97656 27.4062 8.84375 27.4062 11H19.2266C19.2266 10.1406 19.0469 9.38281 18.6875 8.72656C18.3438 8.07031 17.8203 7.55469 17.1172 7.17969C16.4141 6.80469 15.5312 6.61719 14.4688 6.61719C13.4375 6.61719 12.5703 6.77344 11.8672 7.08594C11.1641 7.39844 10.6328 7.82031 10.2734 8.35156C9.91406 8.86719 9.73438 9.4375 9.73438 10.0625C9.73438 10.5781 9.875 11.0469 10.1562 11.4688C10.4531 11.875 10.8672 12.2578 11.3984 12.6172C11.9453 12.9766 12.6016 13.3203 13.3672 13.6484C14.1484 13.9766 15.0234 14.2969 15.9922 14.6094C17.8047 15.1875 19.4141 15.8359 20.8203 16.5547C22.2422 17.2578 23.4375 18.0625 24.4062 18.9688C25.3906 19.8594 26.1328 20.875 26.6328 22.0156C27.1484 23.1562 27.4062 24.4453 27.4062 25.8828C27.4062 27.4141 27.1094 28.7734 26.5156 29.9609C25.9219 31.1484 25.0703 32.1562 23.9609 32.9844C22.8516 33.7969 21.5234 34.4141 19.9766 34.8359C18.4297 35.2578 16.7031 35.4688 14.7969 35.4688C13.0469 35.4688 11.3203 35.25 9.61719 34.8125C7.92969 34.3594 6.39844 33.6719 5.02344 32.75C3.64844 31.8125 2.54688 30.6172 1.71875 29.1641C0.90625 27.6953 0.5 25.9531 0.5 23.9375H8.75C8.75 24.9375 8.88281 25.7812 9.14844 26.4688C9.41406 27.1562 9.80469 27.7109 10.3203 28.1328C10.8359 28.5391 11.4688 28.8359 12.2188 29.0234C12.9688 29.1953 13.8281 29.2812 14.7969 29.2812C15.8438 29.2812 16.6875 29.1328 17.3281 28.8359C17.9688 28.5234 18.4375 28.1172 18.7344 27.6172C19.0312 27.1016 19.1797 26.5391 19.1797 25.9297Z" fill="#0D0D0C"/>
<path d="M192.797 34.3584C192.797 34.1533 192.861 33.9805 192.99 33.8398C193.125 33.6934 193.307 33.6201 193.535 33.6201C193.77 33.6201 193.954 33.6934 194.089 33.8398C194.224 33.9805 194.291 34.1533 194.291 34.3584C194.291 34.5576 194.224 34.7275 194.089 34.8682C193.954 35.0088 193.77 35.0791 193.535 35.0791C193.307 35.0791 193.125 35.0088 192.99 34.8682C192.861 34.7275 192.797 34.5576 192.797 34.3584Z" fill="#0D0D0C"/>
<path d="M182.892 21.5H183.946V33.1543L183.876 35H182.892V21.5ZM190.564 30.1572V30.3418C190.564 31.0508 190.482 31.7012 190.318 32.293C190.154 32.8848 189.917 33.3975 189.606 33.8311C189.296 34.2588 188.915 34.5898 188.464 34.8242C188.019 35.0586 187.506 35.1758 186.926 35.1758C186.357 35.1758 185.854 35.0879 185.414 34.9121C184.975 34.7305 184.6 34.4756 184.289 34.1475C183.979 33.8135 183.729 33.4238 183.542 32.9785C183.354 32.5273 183.223 32.0322 183.146 31.4932V29.1465C183.234 28.5723 183.375 28.0508 183.568 27.582C183.762 27.1133 184.011 26.709 184.315 26.3691C184.626 26.0293 184.995 25.7686 185.423 25.5869C185.856 25.4053 186.352 25.3145 186.908 25.3145C187.488 25.3145 188.004 25.4287 188.455 25.6572C188.912 25.8799 189.296 26.2051 189.606 26.6328C189.917 27.0547 190.154 27.5645 190.318 28.1621C190.482 28.7539 190.564 29.4189 190.564 30.1572ZM189.501 30.3418V30.1572C189.501 29.6006 189.448 29.085 189.343 28.6104C189.237 28.1357 189.07 27.7227 188.842 27.3711C188.619 27.0137 188.332 26.7354 187.98 26.5361C187.629 26.3369 187.207 26.2373 186.715 26.2373C186.211 26.2373 185.78 26.3223 185.423 26.4922C185.071 26.6562 184.778 26.876 184.544 27.1514C184.315 27.4209 184.134 27.7168 183.999 28.0391C183.864 28.3613 183.765 28.6777 183.7 28.9883V31.7217C183.8 32.1611 183.973 32.5742 184.219 32.9609C184.465 33.3477 184.796 33.6611 185.212 33.9014C185.628 34.1357 186.135 34.2529 186.732 34.2529C187.213 34.2529 187.626 34.1533 187.972 33.9541C188.323 33.7549 188.61 33.4795 188.833 33.1279C189.062 32.7764 189.229 32.3633 189.334 31.8887C189.445 31.4141 189.501 30.8984 189.501 30.3418Z" fill="#0D0D0C"/>
<path d="M179.042 33.2949V28.3906C179.042 27.9395 178.948 27.5498 178.761 27.2217C178.573 26.8936 178.298 26.6416 177.935 26.4658C177.571 26.29 177.123 26.2021 176.59 26.2021C176.098 26.2021 175.658 26.29 175.271 26.4658C174.891 26.6357 174.589 26.8672 174.366 27.1602C174.149 27.4473 174.041 27.7666 174.041 28.1182L172.986 28.1094C172.986 27.752 173.074 27.4062 173.25 27.0723C173.426 26.7383 173.675 26.4395 173.997 26.1758C174.319 25.9121 174.703 25.7041 175.148 25.5518C175.6 25.3936 176.095 25.3145 176.634 25.3145C177.313 25.3145 177.911 25.4287 178.427 25.6572C178.948 25.8857 179.355 26.2285 179.648 26.6855C179.941 27.1426 180.088 27.7168 180.088 28.4082V33.0049C180.088 33.333 180.111 33.6729 180.158 34.0244C180.211 34.376 180.284 34.666 180.378 34.8945V35H179.262C179.191 34.7891 179.136 34.5254 179.095 34.209C179.06 33.8867 179.042 33.582 179.042 33.2949ZM179.288 29.4629L179.306 30.2715H177.24C176.701 30.2715 176.218 30.3213 175.79 30.4209C175.368 30.5146 175.011 30.6553 174.718 30.8428C174.425 31.0244 174.199 31.2441 174.041 31.502C173.889 31.7598 173.812 32.0527 173.812 32.3809C173.812 32.7207 173.897 33.0312 174.067 33.3125C174.243 33.5938 174.489 33.8193 174.806 33.9893C175.128 34.1533 175.509 34.2354 175.948 34.2354C176.534 34.2354 177.05 34.127 177.495 33.9102C177.946 33.6934 178.318 33.4092 178.611 33.0576C178.904 32.7061 179.101 32.3223 179.2 31.9062L179.657 32.5127C179.581 32.8057 179.44 33.1074 179.235 33.418C179.036 33.7227 178.775 34.0098 178.453 34.2793C178.131 34.543 177.75 34.7598 177.311 34.9297C176.877 35.0938 176.385 35.1758 175.834 35.1758C175.213 35.1758 174.671 35.0586 174.208 34.8242C173.751 34.5898 173.394 34.2705 173.136 33.8662C172.884 33.4561 172.758 32.9932 172.758 32.4775C172.758 32.0088 172.857 31.5898 173.057 31.2207C173.256 30.8457 173.543 30.5293 173.918 30.2715C174.299 30.0078 174.756 29.8086 175.289 29.6738C175.828 29.5332 176.432 29.4629 177.1 29.4629H179.288Z" fill="#0D0D0C"/>
<path d="M171.413 34.0771V35H164.777V34.0771H171.413ZM165.094 22.2031V35H164.013V22.2031H165.094Z" fill="#0D0D0C"/>
<path d="M156.138 22.2031V35H155.057V22.2031H156.138Z" fill="#0D0D0C"/>
<path d="M147.771 22.9678L143.341 35H142.216L147.05 22.2031H147.832L147.771 22.9678ZM151.796 35L147.357 22.9678L147.296 22.2031H148.078L152.921 35H151.796ZM151.005 30.4824V31.4141H144.211V30.4824H151.005Z" fill="#0D0D0C"/>
<path d="M135.105 33.1543V21.5H136.16V35H135.176L135.105 33.1543ZM128.505 30.3418V30.1572C128.505 29.4189 128.59 28.7539 128.76 28.1621C128.93 27.5645 129.173 27.0547 129.489 26.6328C129.812 26.2051 130.198 25.8799 130.649 25.6572C131.101 25.4287 131.61 25.3145 132.179 25.3145C132.735 25.3145 133.228 25.4053 133.655 25.5869C134.083 25.7686 134.449 26.0293 134.754 26.3691C135.064 26.709 135.313 27.1133 135.501 27.582C135.694 28.0508 135.835 28.5723 135.923 29.1465V31.4932C135.853 32.0322 135.724 32.5273 135.536 32.9785C135.349 33.4238 135.1 33.8135 134.789 34.1475C134.479 34.4756 134.104 34.7305 133.664 34.9121C133.23 35.0879 132.729 35.1758 132.161 35.1758C131.599 35.1758 131.092 35.0586 130.641 34.8242C130.189 34.5898 129.806 34.2588 129.489 33.8311C129.173 33.3975 128.93 32.8848 128.76 32.293C128.59 31.7012 128.505 31.0508 128.505 30.3418ZM129.56 30.1572V30.3418C129.56 30.8984 129.615 31.4141 129.727 31.8887C129.838 32.3633 130.008 32.7764 130.236 33.1279C130.465 33.4795 130.755 33.7549 131.106 33.9541C131.458 34.1533 131.874 34.2529 132.354 34.2529C132.958 34.2529 133.465 34.1387 133.875 33.9102C134.285 33.6758 134.613 33.3682 134.859 32.9873C135.105 32.6006 135.284 32.1787 135.396 31.7217V28.9883C135.325 28.6777 135.223 28.3613 135.088 28.0391C134.953 27.7168 134.769 27.4209 134.534 27.1514C134.306 26.876 134.013 26.6562 133.655 26.4922C133.304 26.3223 132.876 26.2373 132.372 26.2373C131.886 26.2373 131.467 26.3369 131.115 26.5361C130.764 26.7354 130.471 27.0137 130.236 27.3711C130.008 27.7227 129.838 28.1357 129.727 28.6104C129.615 29.085 129.56 29.6006 129.56 30.1572Z" fill="#0D0D0C"/>
<path d="M120.076 27.5205V35H119.03V25.4902H120.032L120.076 27.5205ZM119.839 29.6562L119.373 29.3926C119.408 28.8301 119.522 28.3027 119.716 27.8105C119.909 27.3184 120.17 26.8848 120.498 26.5098C120.832 26.1348 121.222 25.8418 121.667 25.6309C122.118 25.4199 122.616 25.3145 123.161 25.3145C123.636 25.3145 124.061 25.3789 124.436 25.5078C124.811 25.6367 125.13 25.8418 125.394 26.123C125.657 26.4043 125.856 26.7646 125.991 27.2041C126.132 27.6436 126.202 28.1797 126.202 28.8125V35H125.147V28.8037C125.147 28.1475 125.057 27.6348 124.875 27.2656C124.693 26.8906 124.436 26.624 124.102 26.4658C123.768 26.3076 123.372 26.2285 122.915 26.2285C122.411 26.2285 121.969 26.3398 121.588 26.5625C121.213 26.7793 120.896 27.0635 120.639 27.415C120.387 27.7607 120.193 28.1328 120.059 28.5312C119.924 28.9238 119.851 29.2988 119.839 29.6562Z" fill="#0D0D0C"/>
<path d="M115.163 33.2949V28.3906C115.163 27.9395 115.069 27.5498 114.882 27.2217C114.694 26.8936 114.419 26.6416 114.056 26.4658C113.692 26.29 113.244 26.2021 112.711 26.2021C112.219 26.2021 111.779 26.29 111.393 26.4658C111.012 26.6357 110.71 26.8672 110.487 27.1602C110.271 27.4473 110.162 27.7666 110.162 28.1182L109.107 28.1094C109.107 27.752 109.195 27.4062 109.371 27.0723C109.547 26.7383 109.796 26.4395 110.118 26.1758C110.44 25.9121 110.824 25.7041 111.27 25.5518C111.721 25.3936 112.216 25.3145 112.755 25.3145C113.435 25.3145 114.032 25.4287 114.548 25.6572C115.069 25.8857 115.477 26.2285 115.77 26.6855C116.062 27.1426 116.209 27.7168 116.209 28.4082V33.0049C116.209 33.333 116.232 33.6729 116.279 34.0244C116.332 34.376 116.405 34.666 116.499 34.8945V35H115.383C115.312 34.7891 115.257 34.5254 115.216 34.209C115.181 33.8867 115.163 33.582 115.163 33.2949ZM115.409 29.4629L115.427 30.2715H113.361C112.822 30.2715 112.339 30.3213 111.911 30.4209C111.489 30.5146 111.132 30.6553 110.839 30.8428C110.546 31.0244 110.32 31.2441 110.162 31.502C110.01 31.7598 109.934 32.0527 109.934 32.3809C109.934 32.7207 110.019 33.0312 110.188 33.3125C110.364 33.5938 110.61 33.8193 110.927 33.9893C111.249 34.1533 111.63 34.2354 112.069 34.2354C112.655 34.2354 113.171 34.127 113.616 33.9102C114.067 33.6934 114.439 33.4092 114.732 33.0576C115.025 32.7061 115.222 32.3223 115.321 31.9062L115.778 32.5127C115.702 32.8057 115.562 33.1074 115.356 33.418C115.157 33.7227 114.896 34.0098 114.574 34.2793C114.252 34.543 113.871 34.7598 113.432 34.9297C112.998 35.0938 112.506 35.1758 111.955 35.1758C111.334 35.1758 110.792 35.0586 110.329 34.8242C109.872 34.5898 109.515 34.2705 109.257 33.8662C109.005 33.4561 108.879 32.9932 108.879 32.4775C108.879 32.0088 108.979 31.5898 109.178 31.2207C109.377 30.8457 109.664 30.5293 110.039 30.2715C110.42 30.0078 110.877 29.8086 111.41 29.6738C111.949 29.5332 112.553 29.4629 113.221 29.4629H115.409Z" fill="#0D0D0C"/>
<path d="M211.605 13.0508L214.567 4.49023H215.701L211.676 15.5293C211.594 15.7461 211.488 15.9863 211.359 16.25C211.236 16.5137 211.072 16.7656 210.867 17.0059C210.668 17.252 210.416 17.4512 210.111 17.6035C209.812 17.7617 209.446 17.8408 209.013 17.8408C208.901 17.8408 208.758 17.8262 208.582 17.7969C208.412 17.7734 208.289 17.75 208.213 17.7266L208.204 16.8389C208.269 16.8564 208.362 16.8711 208.485 16.8828C208.608 16.8945 208.693 16.9004 208.74 16.9004C209.121 16.9004 209.44 16.8359 209.698 16.707C209.962 16.5781 210.182 16.3848 210.357 16.127C210.533 15.875 210.688 15.5586 210.823 15.1777L211.605 13.0508ZM208.837 4.49023L211.869 12.6553L212.15 13.7539L211.386 14.1846L207.694 4.49023H208.837Z" fill="#0D0D0C"/>
<path d="M199.942 6.31836V17.6562H198.888V4.49023H199.872L199.942 6.31836ZM206.552 9.15723V9.3418C206.552 10.0508 206.47 10.7012 206.306 11.293C206.142 11.8848 205.904 12.3975 205.594 12.8311C205.289 13.2588 204.911 13.5898 204.46 13.8242C204.009 14.0586 203.496 14.1758 202.922 14.1758C202.354 14.1758 201.847 14.0879 201.401 13.9121C200.956 13.7363 200.572 13.4873 200.25 13.165C199.934 12.8369 199.679 12.4561 199.485 12.0225C199.298 11.583 199.166 11.1025 199.09 10.5811V8.14648C199.178 7.57227 199.321 7.05078 199.521 6.58203C199.72 6.11328 199.975 5.70898 200.285 5.36914C200.602 5.0293 200.977 4.76855 201.41 4.58691C201.844 4.40527 202.339 4.31445 202.896 4.31445C203.476 4.31445 203.991 4.42871 204.442 4.65723C204.899 4.87988 205.283 5.20508 205.594 5.63281C205.91 6.05469 206.147 6.56445 206.306 7.16211C206.47 7.75391 206.552 8.41895 206.552 9.15723ZM205.497 9.3418V9.15723C205.497 8.60059 205.438 8.08496 205.321 7.61035C205.21 7.13574 205.037 6.72266 204.803 6.37109C204.574 6.01367 204.281 5.73535 203.924 5.53613C203.572 5.33691 203.153 5.2373 202.667 5.2373C202.163 5.2373 201.732 5.32227 201.375 5.49219C201.023 5.65625 200.73 5.87598 200.496 6.15137C200.262 6.4209 200.077 6.7168 199.942 7.03906C199.808 7.36133 199.708 7.67773 199.644 7.98828V10.792C199.755 11.2373 199.934 11.6504 200.18 12.0312C200.426 12.4062 200.754 12.708 201.164 12.9365C201.58 13.1592 202.087 13.2705 202.685 13.2705C203.165 13.2705 203.581 13.1709 203.933 12.9717C204.284 12.7725 204.574 12.4941 204.803 12.1367C205.037 11.7793 205.21 11.3633 205.321 10.8887C205.438 10.4141 205.497 9.89844 205.497 9.3418Z" fill="#0D0D0C"/>
<path d="M188.235 9.39453V9.10449C188.235 8.41309 188.335 7.77441 188.534 7.18848C188.733 6.60254 189.018 6.0957 189.387 5.66797C189.762 5.24023 190.21 4.90918 190.731 4.6748C191.253 4.43457 191.833 4.31445 192.472 4.31445C193.116 4.31445 193.699 4.43457 194.221 4.6748C194.742 4.90918 195.19 5.24023 195.565 5.66797C195.94 6.0957 196.228 6.60254 196.427 7.18848C196.626 7.77441 196.726 8.41309 196.726 9.10449V9.39453C196.726 10.0859 196.626 10.7246 196.427 11.3105C196.228 11.8906 195.94 12.3945 195.565 12.8223C195.196 13.25 194.751 13.584 194.229 13.8242C193.708 14.0586 193.128 14.1758 192.489 14.1758C191.845 14.1758 191.262 14.0586 190.74 13.8242C190.219 13.584 189.771 13.25 189.396 12.8223C189.021 12.3945 188.733 11.8906 188.534 11.3105C188.335 10.7246 188.235 10.0859 188.235 9.39453ZM189.281 9.10449V9.39453C189.281 9.91602 189.352 10.4111 189.492 10.8799C189.633 11.3428 189.838 11.7559 190.107 12.1191C190.377 12.4766 190.711 12.7578 191.109 12.9629C191.508 13.168 191.968 13.2705 192.489 13.2705C193.005 13.2705 193.459 13.168 193.852 12.9629C194.25 12.7578 194.584 12.4766 194.854 12.1191C195.123 11.7559 195.325 11.3428 195.46 10.8799C195.601 10.4111 195.671 9.91602 195.671 9.39453V9.10449C195.671 8.58887 195.601 8.09961 195.46 7.63672C195.325 7.17383 195.12 6.76074 194.845 6.39746C194.575 6.03418 194.241 5.74707 193.843 5.53613C193.444 5.3252 192.987 5.21973 192.472 5.21973C191.956 5.21973 191.499 5.3252 191.101 5.53613C190.708 5.74707 190.374 6.03418 190.099 6.39746C189.829 6.76074 189.624 7.17383 189.483 7.63672C189.349 8.09961 189.281 8.58887 189.281 9.10449Z" fill="#0D0D0C"/>
<path d="M183.041 13.2705C183.486 13.2705 183.902 13.1885 184.289 13.0244C184.682 12.8545 185.004 12.6055 185.256 12.2773C185.514 11.9434 185.66 11.5361 185.695 11.0557H186.697C186.668 11.6592 186.483 12.1982 186.144 12.6729C185.81 13.1416 185.37 13.5107 184.825 13.7803C184.286 14.0439 183.691 14.1758 183.041 14.1758C182.379 14.1758 181.793 14.0557 181.283 13.8154C180.779 13.5752 180.357 13.2412 180.018 12.8135C179.678 12.3799 179.42 11.876 179.244 11.3018C179.074 10.7217 178.989 10.0977 178.989 9.42969V9.06055C178.989 8.39258 179.074 7.77148 179.244 7.19727C179.42 6.61719 179.678 6.11328 180.018 5.68555C180.357 5.25195 180.779 4.91504 181.283 4.6748C181.787 4.43457 182.37 4.31445 183.032 4.31445C183.712 4.31445 184.321 4.45215 184.86 4.72754C185.405 5.00293 185.839 5.39258 186.161 5.89648C186.489 6.40039 186.668 6.99805 186.697 7.68945H185.695C185.666 7.17969 185.531 6.74023 185.291 6.37109C185.051 6.00195 184.734 5.71777 184.342 5.51855C183.949 5.31934 183.513 5.21973 183.032 5.21973C182.493 5.21973 182.033 5.3252 181.652 5.53613C181.271 5.74121 180.961 6.02539 180.721 6.38867C180.486 6.74609 180.313 7.15625 180.202 7.61914C180.091 8.07617 180.035 8.55664 180.035 9.06055V9.42969C180.035 9.93945 180.088 10.4258 180.193 10.8887C180.305 11.3457 180.478 11.7529 180.712 12.1104C180.952 12.4678 181.263 12.752 181.644 12.9629C182.03 13.168 182.496 13.2705 183.041 13.2705Z" fill="#0D0D0C"/>
<path d="M176.106 11.5742C176.106 11.3164 176.042 11.0615 175.913 10.8096C175.784 10.5576 175.535 10.3262 175.166 10.1152C174.803 9.9043 174.267 9.72559 173.558 9.5791C173.03 9.46191 172.559 9.33008 172.143 9.18359C171.732 9.03711 171.387 8.86133 171.105 8.65625C170.824 8.45117 170.61 8.20508 170.464 7.91797C170.317 7.63086 170.244 7.29102 170.244 6.89844C170.244 6.54688 170.32 6.21582 170.473 5.90527C170.631 5.58887 170.854 5.31348 171.141 5.0791C171.434 4.83887 171.785 4.65137 172.195 4.5166C172.611 4.38184 173.077 4.31445 173.593 4.31445C174.325 4.31445 174.952 4.44043 175.474 4.69238C176.001 4.93848 176.402 5.27539 176.678 5.70312C176.959 6.13086 177.1 6.61426 177.1 7.15332H176.054C176.054 6.8252 175.957 6.51465 175.764 6.22168C175.576 5.92871 175.298 5.68848 174.929 5.50098C174.565 5.31348 174.12 5.21973 173.593 5.21973C173.048 5.21973 172.605 5.30176 172.266 5.46582C171.926 5.62988 171.677 5.83789 171.519 6.08984C171.366 6.3418 171.29 6.60254 171.29 6.87207C171.29 7.08301 171.322 7.27637 171.387 7.45215C171.457 7.62207 171.58 7.78027 171.756 7.92676C171.938 8.07324 172.195 8.21094 172.529 8.33984C172.863 8.46875 173.297 8.59473 173.83 8.71777C174.598 8.8877 175.225 9.0957 175.711 9.3418C176.203 9.58203 176.566 9.88086 176.801 10.2383C177.035 10.5898 177.152 11.0176 177.152 11.5215C177.152 11.9141 177.07 12.2744 176.906 12.6025C176.742 12.9248 176.505 13.2031 176.194 13.4375C175.89 13.6719 175.521 13.8535 175.087 13.9824C174.659 14.1113 174.179 14.1758 173.646 14.1758C172.843 14.1758 172.163 14.0439 171.606 13.7803C171.056 13.5107 170.637 13.1592 170.35 12.7256C170.068 12.2861 169.928 11.8203 169.928 11.3281H170.974C171.009 11.8203 171.164 12.21 171.439 12.4971C171.715 12.7783 172.052 12.9775 172.45 13.0947C172.854 13.2119 173.253 13.2705 173.646 13.2705C174.185 13.2705 174.636 13.1914 174.999 13.0332C175.362 12.875 175.638 12.667 175.825 12.4092C176.013 12.1514 176.106 11.873 176.106 11.5742Z" fill="#0D0D0C"/>
<path d="M159.741 9.39453V9.10449C159.741 8.41309 159.841 7.77441 160.04 7.18848C160.239 6.60254 160.523 6.0957 160.893 5.66797C161.268 5.24023 161.716 4.90918 162.237 4.6748C162.759 4.43457 163.339 4.31445 163.978 4.31445C164.622 4.31445 165.205 4.43457 165.727 4.6748C166.248 4.90918 166.696 5.24023 167.071 5.66797C167.446 6.0957 167.733 6.60254 167.933 7.18848C168.132 7.77441 168.231 8.41309 168.231 9.10449V9.39453C168.231 10.0859 168.132 10.7246 167.933 11.3105C167.733 11.8906 167.446 12.3945 167.071 12.8223C166.702 13.25 166.257 13.584 165.735 13.8242C165.214 14.0586 164.634 14.1758 163.995 14.1758C163.351 14.1758 162.768 14.0586 162.246 13.8242C161.725 13.584 161.276 13.25 160.901 12.8223C160.526 12.3945 160.239 11.8906 160.04 11.3105C159.841 10.7246 159.741 10.0859 159.741 9.39453ZM160.787 9.10449V9.39453C160.787 9.91602 160.857 10.4111 160.998 10.8799C161.139 11.3428 161.344 11.7559 161.613 12.1191C161.883 12.4766 162.217 12.7578 162.615 12.9629C163.014 13.168 163.474 13.2705 163.995 13.2705C164.511 13.2705 164.965 13.168 165.357 12.9629C165.756 12.7578 166.09 12.4766 166.359 12.1191C166.629 11.7559 166.831 11.3428 166.966 10.8799C167.106 10.4111 167.177 9.91602 167.177 9.39453V9.10449C167.177 8.58887 167.106 8.09961 166.966 7.63672C166.831 7.17383 166.626 6.76074 166.351 6.39746C166.081 6.03418 165.747 5.74707 165.349 5.53613C164.95 5.3252 164.493 5.21973 163.978 5.21973C163.462 5.21973 163.005 5.3252 162.606 5.53613C162.214 5.74707 161.88 6.03418 161.604 6.39746C161.335 6.76074 161.13 7.17383 160.989 7.63672C160.854 8.09961 160.787 8.58887 160.787 9.10449Z" fill="#0D0D0C"/>
<path d="M155.479 6.06348V14H154.433V4.49023H155.452L155.479 6.06348ZM158.845 4.41992L158.818 5.38672C158.701 5.36914 158.587 5.35449 158.476 5.34277C158.364 5.33105 158.244 5.3252 158.115 5.3252C157.658 5.3252 157.257 5.41016 156.911 5.58008C156.571 5.74414 156.284 5.97559 156.05 6.27441C155.815 6.56738 155.637 6.91309 155.514 7.31152C155.391 7.7041 155.32 8.12598 155.303 8.57715L154.916 8.72656C154.916 8.10547 154.98 7.52832 155.109 6.99512C155.238 6.46191 155.435 5.99609 155.698 5.59766C155.968 5.19336 156.305 4.87988 156.709 4.65723C157.119 4.42871 157.6 4.31445 158.15 4.31445C158.285 4.31445 158.417 4.32617 158.546 4.34961C158.681 4.36719 158.78 4.39062 158.845 4.41992Z" fill="#0D0D0C"/>
<path d="M152.227 4.49023V5.35156H147.463V4.49023H152.227ZM149.212 2.04688H150.258V11.6885C150.258 12.1279 150.316 12.459 150.434 12.6816C150.551 12.9043 150.703 13.0537 150.891 13.1299C151.078 13.2061 151.28 13.2441 151.497 13.2441C151.655 13.2441 151.808 13.2354 151.954 13.2178C152.101 13.1943 152.232 13.1709 152.35 13.1475L152.394 14.0352C152.265 14.0762 152.098 14.1084 151.893 14.1318C151.688 14.1611 151.482 14.1758 151.277 14.1758C150.873 14.1758 150.516 14.1025 150.205 13.9561C149.895 13.8037 149.651 13.5459 149.476 13.1826C149.3 12.8135 149.212 12.3125 149.212 11.6797V2.04688Z" fill="#0D0D0C"/>
<path d="M142.857 13.2705C143.303 13.2705 143.719 13.1885 144.105 13.0244C144.498 12.8545 144.82 12.6055 145.072 12.2773C145.33 11.9434 145.477 11.5361 145.512 11.0557H146.514C146.484 11.6592 146.3 12.1982 145.96 12.6729C145.626 13.1416 145.187 13.5107 144.642 13.7803C144.103 14.0439 143.508 14.1758 142.857 14.1758C142.195 14.1758 141.609 14.0557 141.1 13.8154C140.596 13.5752 140.174 13.2412 139.834 12.8135C139.494 12.3799 139.236 11.876 139.061 11.3018C138.891 10.7217 138.806 10.0977 138.806 9.42969V9.06055C138.806 8.39258 138.891 7.77148 139.061 7.19727C139.236 6.61719 139.494 6.11328 139.834 5.68555C140.174 5.25195 140.596 4.91504 141.1 4.6748C141.604 4.43457 142.187 4.31445 142.849 4.31445C143.528 4.31445 144.138 4.45215 144.677 4.72754C145.222 5.00293 145.655 5.39258 145.978 5.89648C146.306 6.40039 146.484 6.99805 146.514 7.68945H145.512C145.482 7.17969 145.348 6.74023 145.107 6.37109C144.867 6.00195 144.551 5.71777 144.158 5.51855C143.766 5.31934 143.329 5.21973 142.849 5.21973C142.31 5.21973 141.85 5.3252 141.469 5.53613C141.088 5.74121 140.777 6.02539 140.537 6.38867C140.303 6.74609 140.13 7.15625 140.019 7.61914C139.907 8.07617 139.852 8.55664 139.852 9.06055V9.42969C139.852 9.93945 139.904 10.4258 140.01 10.8887C140.121 11.3457 140.294 11.7529 140.528 12.1104C140.769 12.4678 141.079 12.752 141.46 12.9629C141.847 13.168 142.312 13.2705 142.857 13.2705Z" fill="#0D0D0C"/>
<path d="M133.708 14.1758C133.087 14.1758 132.516 14.0615 131.994 13.833C131.479 13.6045 131.027 13.2822 130.641 12.8662C130.26 12.4502 129.964 11.958 129.753 11.3896C129.548 10.8154 129.445 10.1885 129.445 9.50879V9.13086C129.445 8.39844 129.554 7.73633 129.771 7.14453C129.987 6.55273 130.286 6.0459 130.667 5.62402C131.048 5.20215 131.481 4.87988 131.968 4.65723C132.46 4.42871 132.976 4.31445 133.515 4.31445C134.118 4.31445 134.654 4.42285 135.123 4.63965C135.592 4.85059 135.984 5.15234 136.301 5.54492C136.623 5.93164 136.866 6.3916 137.03 6.9248C137.194 7.45215 137.276 8.03516 137.276 8.67383V9.31543H130.078V8.41895H136.23V8.2959C136.219 7.7627 136.11 7.26465 135.905 6.80176C135.706 6.33301 135.407 5.95215 135.009 5.65918C134.61 5.36621 134.112 5.21973 133.515 5.21973C133.069 5.21973 132.659 5.31348 132.284 5.50098C131.915 5.68848 131.596 5.95801 131.326 6.30957C131.062 6.65527 130.857 7.06836 130.711 7.54883C130.57 8.02344 130.5 8.55078 130.5 9.13086V9.50879C130.5 10.0361 130.576 10.5283 130.729 10.9854C130.887 11.4365 131.109 11.835 131.396 12.1807C131.689 12.5264 132.035 12.7959 132.434 12.9893C132.832 13.1826 133.271 13.2793 133.752 13.2793C134.314 13.2793 134.812 13.1768 135.246 12.9717C135.68 12.7607 136.069 12.4297 136.415 11.9785L137.074 12.4883C136.869 12.793 136.611 13.0742 136.301 13.332C135.996 13.5898 135.63 13.7949 135.202 13.9473C134.774 14.0996 134.276 14.1758 133.708 14.1758Z" fill="#0D0D0C"/>
<path d="M121.087 6.31836V17.6562H120.032V4.49023H121.017L121.087 6.31836ZM127.696 9.15723V9.3418C127.696 10.0508 127.614 10.7012 127.45 11.293C127.286 11.8848 127.049 12.3975 126.738 12.8311C126.434 13.2588 126.056 13.5898 125.604 13.8242C125.153 14.0586 124.641 14.1758 124.066 14.1758C123.498 14.1758 122.991 14.0879 122.546 13.9121C122.101 13.7363 121.717 13.4873 121.395 13.165C121.078 12.8369 120.823 12.4561 120.63 12.0225C120.442 11.583 120.311 11.1025 120.234 10.5811V8.14648C120.322 7.57227 120.466 7.05078 120.665 6.58203C120.864 6.11328 121.119 5.70898 121.43 5.36914C121.746 5.0293 122.121 4.76855 122.555 4.58691C122.988 4.40527 123.483 4.31445 124.04 4.31445C124.62 4.31445 125.136 4.42871 125.587 4.65723C126.044 4.87988 126.428 5.20508 126.738 5.63281C127.055 6.05469 127.292 6.56445 127.45 7.16211C127.614 7.75391 127.696 8.41895 127.696 9.15723ZM126.642 9.3418V9.15723C126.642 8.60059 126.583 8.08496 126.466 7.61035C126.354 7.13574 126.182 6.72266 125.947 6.37109C125.719 6.01367 125.426 5.73535 125.068 5.53613C124.717 5.33691 124.298 5.2373 123.812 5.2373C123.308 5.2373 122.877 5.32227 122.52 5.49219C122.168 5.65625 121.875 5.87598 121.641 6.15137C121.406 6.4209 121.222 6.7168 121.087 7.03906C120.952 7.36133 120.853 7.67773 120.788 7.98828V10.792C120.899 11.2373 121.078 11.6504 121.324 12.0312C121.57 12.4062 121.898 12.708 122.309 12.9365C122.725 13.1592 123.231 13.2705 123.829 13.2705C124.31 13.2705 124.726 13.1709 125.077 12.9717C125.429 12.7725 125.719 12.4941 125.947 12.1367C126.182 11.7793 126.354 11.3633 126.466 10.8887C126.583 10.4141 126.642 9.89844 126.642 9.3418Z" fill="#0D0D0C"/>
<path d="M116.868 10.8535C116.868 10.502 116.81 10.1885 116.692 9.91309C116.575 9.6377 116.382 9.3916 116.112 9.1748C115.849 8.95215 115.491 8.74707 115.04 8.55957C114.595 8.36621 114.038 8.17578 113.37 7.98828C112.731 7.80664 112.154 7.60742 111.639 7.39062C111.123 7.17383 110.681 6.9248 110.312 6.64355C109.948 6.3623 109.67 6.03418 109.477 5.65918C109.283 5.27832 109.187 4.83594 109.187 4.33203C109.187 3.83984 109.292 3.3916 109.503 2.9873C109.714 2.58301 110.01 2.23438 110.391 1.94141C110.777 1.64844 111.231 1.42285 111.753 1.26465C112.28 1.10645 112.857 1.02734 113.484 1.02734C114.381 1.02734 115.154 1.19727 115.805 1.53711C116.461 1.87695 116.968 2.33691 117.325 2.91699C117.688 3.49121 117.87 4.13574 117.87 4.85059H116.789C116.789 4.29395 116.657 3.79883 116.394 3.36523C116.136 2.92578 115.761 2.58301 115.269 2.33691C114.782 2.08496 114.188 1.95898 113.484 1.95898C112.781 1.95898 112.189 2.06738 111.709 2.28418C111.234 2.49512 110.874 2.7793 110.628 3.13672C110.388 3.48828 110.268 3.88086 110.268 4.31445C110.268 4.61914 110.326 4.90039 110.443 5.1582C110.561 5.41016 110.751 5.64746 111.015 5.87012C111.284 6.08691 111.639 6.29199 112.078 6.48535C112.518 6.67285 113.06 6.85156 113.704 7.02148C114.384 7.20898 114.987 7.41699 115.515 7.64551C116.042 7.87402 116.487 8.1377 116.851 8.43652C117.214 8.72949 117.489 9.07227 117.677 9.46484C117.864 9.85742 117.958 10.3145 117.958 10.8359C117.958 11.3574 117.847 11.8262 117.624 12.2422C117.407 12.6523 117.1 13.001 116.701 13.2881C116.309 13.5752 115.843 13.7949 115.304 13.9473C114.771 14.0996 114.188 14.1758 113.555 14.1758C112.986 14.1758 112.421 14.1025 111.858 13.9561C111.296 13.8096 110.78 13.584 110.312 13.2793C109.849 12.9688 109.477 12.5703 109.195 12.084C108.92 11.5977 108.782 11.0176 108.782 10.3438H109.854C109.854 10.8828 109.963 11.3369 110.18 11.7061C110.396 12.0752 110.684 12.374 111.041 12.6025C111.404 12.8311 111.803 12.998 112.236 13.1035C112.676 13.2031 113.115 13.2529 113.555 13.2529C114.229 13.2529 114.812 13.1533 115.304 12.9541C115.802 12.7549 116.186 12.4766 116.455 12.1191C116.73 11.7559 116.868 11.334 116.868 10.8535Z" fill="#0D0D0C"/>
</svg>
