<svg width="66" height="73" viewBox="0 0 66 73" fill="none" xmlns="http://www.w3.org/2000/svg">
<path d="M62.7031 72.1562C62.1146 72.1562 61.5807 72.0573 61.1016 71.8594C60.6276 71.6562 60.2188 71.3724 59.875 71.0078C59.5365 70.6432 59.276 70.2109 59.0938 69.7109C58.9115 69.2109 58.8203 68.6641 58.8203 68.0703V67.7422C58.8203 67.0547 58.9219 66.4427 59.125 65.9062C59.3281 65.3646 59.6042 64.9062 59.9531 64.5312C60.3021 64.1562 60.6979 63.8724 61.1406 63.6797C61.5833 63.487 62.0417 63.3906 62.5156 63.3906C63.1198 63.3906 63.6406 63.4948 64.0781 63.7031C64.5208 63.9115 64.8828 64.2031 65.1641 64.5781C65.4453 64.9479 65.6536 65.3854 65.7891 65.8906C65.9245 66.3906 65.9922 66.9375 65.9922 67.5312V68.1797H59.6797V67H64.5469V66.8906C64.526 66.5156 64.4479 66.151 64.3125 65.7969C64.1823 65.4427 63.974 65.151 63.6875 64.9219C63.401 64.6927 63.0104 64.5781 62.5156 64.5781C62.1875 64.5781 61.8854 64.6484 61.6094 64.7891C61.3333 64.9245 61.0964 65.1276 60.8984 65.3984C60.7005 65.6693 60.5469 66 60.4375 66.3906C60.3281 66.7812 60.2734 67.2318 60.2734 67.7422V68.0703C60.2734 68.4714 60.3281 68.849 60.4375 69.2031C60.5521 69.5521 60.7161 69.8594 60.9297 70.125C61.1484 70.3906 61.4115 70.599 61.7188 70.75C62.0312 70.901 62.3854 70.9766 62.7812 70.9766C63.2917 70.9766 63.724 70.8724 64.0781 70.6641C64.4323 70.4557 64.7422 70.1771 65.0078 69.8281L65.8828 70.5234C65.7005 70.7995 65.4688 71.0625 65.1875 71.3125C64.9062 71.5625 64.5599 71.7656 64.1484 71.9219C63.7422 72.0781 63.2604 72.1562 62.7031 72.1562Z" fill="#0D0D0C"/>
<path d="M55.8516 69.7578C55.8516 69.5495 55.8047 69.3568 55.7109 69.1797C55.6224 68.9974 55.4375 68.8333 55.1562 68.6875C54.8802 68.5365 54.4635 68.4062 53.9062 68.2969C53.4375 68.1979 53.013 68.0807 52.6328 67.9453C52.2578 67.8099 51.9375 67.6458 51.6719 67.4531C51.4115 67.2604 51.2109 67.0339 51.0703 66.7734C50.9297 66.513 50.8594 66.2083 50.8594 65.8594C50.8594 65.526 50.9323 65.2109 51.0781 64.9141C51.2292 64.6172 51.4401 64.3542 51.7109 64.125C51.987 63.8958 52.3177 63.7161 52.7031 63.5859C53.0885 63.4557 53.5182 63.3906 53.9922 63.3906C54.6693 63.3906 55.2474 63.5104 55.7266 63.75C56.2057 63.9896 56.5729 64.3099 56.8281 64.7109C57.0833 65.1068 57.2109 65.5469 57.2109 66.0312H55.7656C55.7656 65.7969 55.6953 65.5703 55.5547 65.3516C55.4193 65.1276 55.2188 64.9427 54.9531 64.7969C54.6927 64.651 54.3724 64.5781 53.9922 64.5781C53.5911 64.5781 53.2656 64.6406 53.0156 64.7656C52.7708 64.8854 52.5911 65.0391 52.4766 65.2266C52.3672 65.4141 52.3125 65.612 52.3125 65.8203C52.3125 65.9766 52.3385 66.1172 52.3906 66.2422C52.4479 66.362 52.5469 66.474 52.6875 66.5781C52.8281 66.6771 53.026 66.7708 53.2812 66.8594C53.5365 66.9479 53.862 67.0365 54.2578 67.125C54.9505 67.2812 55.5208 67.4688 55.9688 67.6875C56.4167 67.9062 56.75 68.1745 56.9688 68.4922C57.1875 68.8099 57.2969 69.1953 57.2969 69.6484C57.2969 70.0182 57.2188 70.3568 57.0625 70.6641C56.9115 70.9714 56.6901 71.237 56.3984 71.4609C56.112 71.6797 55.7682 71.8516 55.3672 71.9766C54.9714 72.0964 54.526 72.1562 54.0312 72.1562C53.2865 72.1562 52.6562 72.0234 52.1406 71.7578C51.625 71.4922 51.2344 71.1484 50.9688 70.7266C50.7031 70.3047 50.5703 69.8594 50.5703 69.3906H52.0234C52.0443 69.7865 52.1589 70.1016 52.3672 70.3359C52.5755 70.5651 52.8307 70.7292 53.1328 70.8281C53.4349 70.9219 53.7344 70.9688 54.0312 70.9688C54.4271 70.9688 54.7578 70.9167 55.0234 70.8125C55.2943 70.7083 55.5 70.5651 55.6406 70.3828C55.7812 70.2005 55.8516 69.9922 55.8516 69.7578Z" fill="#0D0D0C"/>
<path d="M47.2109 70.5547V66.2031C47.2109 65.8698 47.1432 65.5807 47.0078 65.3359C46.8776 65.0859 46.6797 64.8932 46.4141 64.7578C46.1484 64.6224 45.8203 64.5547 45.4297 64.5547C45.0651 64.5547 44.7448 64.6172 44.4688 64.7422C44.1979 64.8672 43.9844 65.0312 43.8281 65.2344C43.6771 65.4375 43.6016 65.6562 43.6016 65.8906H42.1562C42.1562 65.5885 42.2344 65.2891 42.3906 64.9922C42.5469 64.6953 42.7708 64.4271 43.0625 64.1875C43.3594 63.9427 43.7135 63.75 44.125 63.6094C44.5417 63.4635 45.0052 63.3906 45.5156 63.3906C46.1302 63.3906 46.6719 63.4948 47.1406 63.7031C47.6146 63.9115 47.9844 64.2266 48.25 64.6484C48.5208 65.0651 48.6562 65.5885 48.6562 66.2188V70.1562C48.6562 70.4375 48.6797 70.737 48.7266 71.0547C48.7786 71.3724 48.8542 71.6458 48.9531 71.875V72H47.4453C47.3724 71.8333 47.3151 71.612 47.2734 71.3359C47.2318 71.0547 47.2109 70.7943 47.2109 70.5547ZM47.4609 66.875L47.4766 67.8906H46.0156C45.6042 67.8906 45.237 67.9245 44.9141 67.9922C44.5911 68.0547 44.3203 68.151 44.1016 68.2812C43.8828 68.4115 43.7161 68.5755 43.6016 68.7734C43.487 68.9661 43.4297 69.1927 43.4297 69.4531C43.4297 69.7188 43.4896 69.9609 43.6094 70.1797C43.7292 70.3984 43.9089 70.5729 44.1484 70.7031C44.3932 70.8281 44.6927 70.8906 45.0469 70.8906C45.4896 70.8906 45.8802 70.7969 46.2188 70.6094C46.5573 70.4219 46.8255 70.1927 47.0234 69.9219C47.2266 69.651 47.3359 69.388 47.3516 69.1328L47.9688 69.8281C47.9323 70.0469 47.8333 70.2891 47.6719 70.5547C47.5104 70.8203 47.2943 71.0755 47.0234 71.3203C46.7578 71.5599 46.4401 71.7604 46.0703 71.9219C45.7057 72.0781 45.2943 72.1562 44.8359 72.1562C44.263 72.1562 43.7604 72.0443 43.3281 71.8203C42.901 71.5964 42.5677 71.2969 42.3281 70.9219C42.0938 70.5417 41.9766 70.1172 41.9766 69.6484C41.9766 69.1953 42.0651 68.7969 42.2422 68.4531C42.4193 68.1042 42.6745 67.8151 43.0078 67.5859C43.3411 67.3516 43.7422 67.1745 44.2109 67.0547C44.6797 66.9349 45.2031 66.875 45.7812 66.875H47.4609Z" fill="#0D0D0C"/>
<path d="M33.2344 60H34.6875V70.3594L34.5625 72H33.2344V60ZM40.3984 67.7031V67.8672C40.3984 68.4818 40.3255 69.0521 40.1797 69.5781C40.0339 70.099 39.8203 70.5521 39.5391 70.9375C39.2578 71.3229 38.9141 71.6224 38.5078 71.8359C38.1016 72.0495 37.6354 72.1562 37.1094 72.1562C36.5729 72.1562 36.1016 72.0651 35.6953 71.8828C35.2943 71.6953 34.9557 71.4271 34.6797 71.0781C34.4036 70.7292 34.1823 70.3073 34.0156 69.8125C33.8542 69.3177 33.7422 68.7604 33.6797 68.1406V67.4219C33.7422 66.7969 33.8542 66.237 34.0156 65.7422C34.1823 65.2474 34.4036 64.8255 34.6797 64.4766C34.9557 64.1224 35.2943 63.8542 35.6953 63.6719C36.0964 63.4844 36.5625 63.3906 37.0938 63.3906C37.625 63.3906 38.0964 63.4948 38.5078 63.7031C38.9193 63.9062 39.263 64.1979 39.5391 64.5781C39.8203 64.9583 40.0339 65.4141 40.1797 65.9453C40.3255 66.4714 40.3984 67.0573 40.3984 67.7031ZM38.9453 67.8672V67.7031C38.9453 67.2812 38.9062 66.8854 38.8281 66.5156C38.75 66.1406 38.625 65.8125 38.4531 65.5312C38.2812 65.2448 38.0547 65.0208 37.7734 64.8594C37.4922 64.6927 37.1458 64.6094 36.7344 64.6094C36.3698 64.6094 36.0521 64.6719 35.7812 64.7969C35.5156 64.9219 35.2891 65.0911 35.1016 65.3047C34.9141 65.513 34.7604 65.7526 34.6406 66.0234C34.526 66.2891 34.4401 66.5651 34.3828 66.8516V68.7344C34.4661 69.099 34.6016 69.4505 34.7891 69.7891C34.9818 70.1224 35.237 70.3958 35.5547 70.6094C35.8776 70.8229 36.276 70.9297 36.75 70.9297C37.1406 70.9297 37.474 70.8516 37.75 70.6953C38.0312 70.5339 38.2578 70.3125 38.4297 70.0312C38.6068 69.75 38.737 69.4245 38.8203 69.0547C38.9036 68.6849 38.9453 68.2891 38.9453 67.8672Z" fill="#0D0D0C"/>
<path d="M29.5234 70.5547V66.2031C29.5234 65.8698 29.4557 65.5807 29.3203 65.3359C29.1901 65.0859 28.9922 64.8932 28.7266 64.7578C28.4609 64.6224 28.1328 64.5547 27.7422 64.5547C27.3776 64.5547 27.0573 64.6172 26.7812 64.7422C26.5104 64.8672 26.2969 65.0312 26.1406 65.2344C25.9896 65.4375 25.9141 65.6562 25.9141 65.8906H24.4688C24.4688 65.5885 24.5469 65.2891 24.7031 64.9922C24.8594 64.6953 25.0833 64.4271 25.375 64.1875C25.6719 63.9427 26.026 63.75 26.4375 63.6094C26.8542 63.4635 27.3177 63.3906 27.8281 63.3906C28.4427 63.3906 28.9844 63.4948 29.4531 63.7031C29.9271 63.9115 30.2969 64.2266 30.5625 64.6484C30.8333 65.0651 30.9688 65.5885 30.9688 66.2188V70.1562C30.9688 70.4375 30.9922 70.737 31.0391 71.0547C31.0911 71.3724 31.1667 71.6458 31.2656 71.875V72H29.7578C29.6849 71.8333 29.6276 71.612 29.5859 71.3359C29.5443 71.0547 29.5234 70.7943 29.5234 70.5547ZM29.7734 66.875L29.7891 67.8906H28.3281C27.9167 67.8906 27.5495 67.9245 27.2266 67.9922C26.9036 68.0547 26.6328 68.151 26.4141 68.2812C26.1953 68.4115 26.0286 68.5755 25.9141 68.7734C25.7995 68.9661 25.7422 69.1927 25.7422 69.4531C25.7422 69.7188 25.8021 69.9609 25.9219 70.1797C26.0417 70.3984 26.2214 70.5729 26.4609 70.7031C26.7057 70.8281 27.0052 70.8906 27.3594 70.8906C27.8021 70.8906 28.1927 70.7969 28.5312 70.6094C28.8698 70.4219 29.138 70.1927 29.3359 69.9219C29.5391 69.651 29.6484 69.388 29.6641 69.1328L30.2812 69.8281C30.2448 70.0469 30.1458 70.2891 29.9844 70.5547C29.8229 70.8203 29.6068 71.0755 29.3359 71.3203C29.0703 71.5599 28.7526 71.7604 28.3828 71.9219C28.0182 72.0781 27.6068 72.1562 27.1484 72.1562C26.5755 72.1562 26.0729 72.0443 25.6406 71.8203C25.2135 71.5964 24.8802 71.2969 24.6406 70.9219C24.4062 70.5417 24.2891 70.1172 24.2891 69.6484C24.2891 69.1953 24.3776 68.7969 24.5547 68.4531C24.7318 68.1042 24.987 67.8151 25.3203 67.5859C25.6536 67.3516 26.0547 67.1745 26.5234 67.0547C26.9922 66.9349 27.5156 66.875 28.0938 66.875H29.7734Z" fill="#0D0D0C"/>
<path d="M22.8438 63.5469V64.6562H18.2734V63.5469H22.8438ZM19.8203 61.4922H21.2656V69.9062C21.2656 70.1927 21.3099 70.4089 21.3984 70.5547C21.487 70.7005 21.6016 70.7969 21.7422 70.8438C21.8828 70.8906 22.0339 70.9141 22.1953 70.9141C22.3151 70.9141 22.4401 70.9036 22.5703 70.8828C22.7057 70.8568 22.8073 70.8359 22.875 70.8203L22.8828 72C22.7682 72.0365 22.6172 72.0703 22.4297 72.1016C22.2474 72.138 22.026 72.1562 21.7656 72.1562C21.4115 72.1562 21.0859 72.0859 20.7891 71.9453C20.4922 71.8047 20.2552 71.5703 20.0781 71.2422C19.9062 70.9089 19.8203 70.4609 19.8203 69.8984V61.4922Z" fill="#0D0D0C"/>
<path d="M15.5859 70.5547V66.2031C15.5859 65.8698 15.5182 65.5807 15.3828 65.3359C15.2526 65.0859 15.0547 64.8932 14.7891 64.7578C14.5234 64.6224 14.1953 64.5547 13.8047 64.5547C13.4401 64.5547 13.1198 64.6172 12.8438 64.7422C12.5729 64.8672 12.3594 65.0312 12.2031 65.2344C12.0521 65.4375 11.9766 65.6562 11.9766 65.8906H10.5312C10.5312 65.5885 10.6094 65.2891 10.7656 64.9922C10.9219 64.6953 11.1458 64.4271 11.4375 64.1875C11.7344 63.9427 12.0885 63.75 12.5 63.6094C12.9167 63.4635 13.3802 63.3906 13.8906 63.3906C14.5052 63.3906 15.0469 63.4948 15.5156 63.7031C15.9896 63.9115 16.3594 64.2266 16.625 64.6484C16.8958 65.0651 17.0312 65.5885 17.0312 66.2188V70.1562C17.0312 70.4375 17.0547 70.737 17.1016 71.0547C17.1536 71.3724 17.2292 71.6458 17.3281 71.875V72H15.8203C15.7474 71.8333 15.6901 71.612 15.6484 71.3359C15.6068 71.0547 15.5859 70.7943 15.5859 70.5547ZM15.8359 66.875L15.8516 67.8906H14.3906C13.9792 67.8906 13.612 67.9245 13.2891 67.9922C12.9661 68.0547 12.6953 68.151 12.4766 68.2812C12.2578 68.4115 12.0911 68.5755 11.9766 68.7734C11.862 68.9661 11.8047 69.1927 11.8047 69.4531C11.8047 69.7188 11.8646 69.9609 11.9844 70.1797C12.1042 70.3984 12.2839 70.5729 12.5234 70.7031C12.7682 70.8281 13.0677 70.8906 13.4219 70.8906C13.8646 70.8906 14.2552 70.7969 14.5938 70.6094C14.9323 70.4219 15.2005 70.1927 15.3984 69.9219C15.6016 69.651 15.7109 69.388 15.7266 69.1328L16.3438 69.8281C16.3073 70.0469 16.2083 70.2891 16.0469 70.5547C15.8854 70.8203 15.6693 71.0755 15.3984 71.3203C15.1328 71.5599 14.8151 71.7604 14.4453 71.9219C14.0807 72.0781 13.6693 72.1562 13.2109 72.1562C12.638 72.1562 12.1354 72.0443 11.7031 71.8203C11.276 71.5964 10.9427 71.2969 10.7031 70.9219C10.4688 70.5417 10.3516 70.1172 10.3516 69.6484C10.3516 69.1953 10.4401 68.7969 10.6172 68.4531C10.7943 68.1042 11.0495 67.8151 11.3828 67.5859C11.7161 67.3516 12.1172 67.1745 12.5859 67.0547C13.0547 66.9349 13.5781 66.875 14.1562 66.875H15.8359Z" fill="#0D0D0C"/>
<path d="M3.39844 72H1.02344L1.03906 70.7734H3.39844C4.21094 70.7734 4.88802 70.6042 5.42969 70.2656C5.97135 69.9219 6.3776 69.4427 6.64844 68.8281C6.92448 68.2083 7.0625 67.4844 7.0625 66.6562V65.9609C7.0625 65.3099 6.98438 64.7318 6.82812 64.2266C6.67188 63.7161 6.44271 63.2865 6.14062 62.9375C5.83854 62.5833 5.46875 62.3151 5.03125 62.1328C4.59896 61.9505 4.10156 61.8594 3.53906 61.8594H0.976562V60.625H3.53906C4.28385 60.625 4.96354 60.75 5.57812 61C6.19271 61.2448 6.72135 61.6016 7.16406 62.0703C7.61198 62.5339 7.95573 63.0964 8.19531 63.7578C8.4349 64.4141 8.55469 65.1536 8.55469 65.9766V66.6562C8.55469 67.4792 8.4349 68.2214 8.19531 68.8828C7.95573 69.5391 7.60938 70.099 7.15625 70.5625C6.70833 71.026 6.16667 71.3828 5.53125 71.6328C4.90104 71.8776 4.1901 72 3.39844 72ZM1.82812 60.625V72H0.320312V60.625H1.82812Z" fill="#0D0D0C"/>
<path d="M52.9163 39.5862H13.083V41.8332H52.9163V39.5862Z" fill="#EBE7F2"/>
<path d="M45.2939 15.5833H54.9999C55.3444 15.5833 55.6249 15.8635 55.6249 16.2083V42.7083C55.6249 43.0535 55.9047 43.3333 56.2499 43.3333C56.5952 43.3333 56.8749 43.0535 56.8749 42.7083V16.2083C56.8749 15.1743 56.0339 14.3333 54.9999 14.3333H45.2939C44.9487 14.3333 44.6689 14.613 44.6689 14.9583C44.6689 15.3035 44.9487 15.5833 45.2939 15.5833Z" fill="#846F75"/>
<path d="M9.75 43.3333C10.0953 43.3333 10.375 43.0535 10.375 42.7083V16.2083C10.375 15.8635 10.6555 15.5833 11 15.5833H20.706C21.0512 15.5833 21.331 15.3035 21.331 14.9583C21.331 14.613 21.0512 14.3333 20.706 14.3333H11C9.966 14.3333 9.125 15.1743 9.125 16.2083V42.7083C9.125 43.0535 9.40475 43.3333 9.75 43.3333Z" fill="#846F75"/>
<path d="M45.2938 18.7083H52.2915V41.2083H13.708V18.7083H20.7058C21.051 18.7083 21.3308 18.4285 21.3308 18.0833C21.3308 17.738 21.051 17.4583 20.7058 17.4583H13.083C12.7378 17.4583 12.458 17.738 12.458 18.0833V41.8333C12.458 42.1785 12.7378 42.4583 13.083 42.4583H52.9163C53.2615 42.4583 53.5413 42.1785 53.5413 41.8333V18.0833C53.5413 17.738 53.2615 17.4583 52.9163 17.4583H45.2935C44.9483 17.4583 44.6685 17.738 44.6685 18.0833C44.6685 18.4285 44.9485 18.7083 45.2938 18.7083Z" fill="#846F75"/>
<path d="M58.2082 44.3333H7.79175C6.3215 44.3333 5.125 45.5295 5.125 47C5.125 48.4705 6.32125 49.6668 7.79175 49.6668H58.2085C59.6787 49.6668 60.8753 48.4705 60.8753 47C60.8753 45.5295 59.6787 44.3333 58.2082 44.3333ZM58.2082 48.4168H7.79175C7.0105 48.4168 6.375 47.7813 6.375 47C6.375 46.2188 7.0105 45.5833 7.79175 45.5833H58.2085C58.9897 45.5833 59.6253 46.2188 59.6253 47C59.6253 47.7813 58.9895 48.4168 58.2082 48.4168Z" fill="#846F75"/>
<path d="M33.9925 26.7333H32.008C31.3243 26.7333 30.7268 26.2708 30.5555 25.609L30.0733 23.7458L28.4148 24.722C27.826 25.069 27.0763 24.9735 26.593 24.49L25.1895 23.0865C24.706 22.6033 24.6108 21.854 24.9575 21.2648L25.934 19.606L24.0708 19.1238C23.4088 18.952 22.9463 18.355 22.9463 17.6713V15.6868C22.9463 15.0028 23.4088 14.4055 24.0708 14.234L25.9338 13.7518L24.9573 12.0933C24.6103 11.5043 24.7058 10.7548 25.1893 10.2713L26.5928 8.86801C27.076 8.38401 27.8253 8.28851 28.4148 8.63576L30.0733 9.61226L30.5555 7.74901C30.727 7.08726 31.3243 6.62476 32.008 6.62476H33.9925C34.6763 6.62476 35.2738 7.08726 35.445 7.74901L35.9273 9.61226L37.5858 8.63576C38.1753 8.28901 38.9245 8.38401 39.408 8.86826L40.8113 10.2713C41.2948 10.755 41.39 11.504 41.0435 12.093L40.067 13.7518L41.93 14.234C42.592 14.4055 43.0545 15.0025 43.0545 15.6868V17.6713C43.0545 18.3548 42.5923 18.952 41.9303 19.1238L40.067 19.606L41.0435 21.2648C41.3905 21.8543 41.2948 22.6033 40.8115 23.0868L39.4083 24.49C38.9248 24.9738 38.176 25.0695 37.5863 24.722L35.9278 23.7458L35.4455 25.6088C35.2738 26.2708 34.6765 26.7333 33.9925 26.7333ZM30.4725 22.1568C30.5538 22.1568 30.6353 22.1725 30.7125 22.2045C30.91 22.2868 31.0515 22.4643 31.0883 22.6748L31.7655 25.2953C31.794 25.4058 31.8938 25.483 32.0078 25.483H33.9923C34.1065 25.483 34.206 25.4058 34.2345 25.2953L34.907 22.697C34.9435 22.485 35.0885 22.296 35.2873 22.214C35.486 22.132 35.715 22.1473 35.8903 22.2718L38.2198 23.6443C38.3183 23.702 38.4433 23.686 38.5238 23.6058L39.927 22.2023C40.0078 22.1218 40.0235 21.9968 39.9658 21.8983L38.6043 19.5855C38.4815 19.4103 38.45 19.1743 38.5323 18.9765C38.6143 18.779 38.7853 18.627 38.996 18.5905L41.6165 17.9133C41.7268 17.8845 41.804 17.7848 41.804 17.6708V15.6863C41.804 15.5723 41.727 15.4725 41.6165 15.444L39.0183 14.7713C38.8068 14.7348 38.6178 14.5895 38.536 14.391C38.4543 14.1928 38.4688 13.9638 38.593 13.7888L39.9658 11.4588C40.0235 11.3605 40.0075 11.2353 39.927 11.1548L38.5238 9.75151C38.443 9.67076 38.318 9.65476 38.22 9.71276L35.9073 11.0745C35.7323 11.1988 35.4973 11.2303 35.2988 11.1488C35.1003 11.067 34.949 10.8943 34.9123 10.683L34.235 8.06226C34.2065 7.95201 34.1068 7.87476 33.9928 7.87476H32.0083C31.894 7.87476 31.7945 7.95201 31.766 8.06251L31.0935 10.6608C31.0568 10.8723 30.9115 11.0615 30.713 11.1433C30.5143 11.2245 30.2853 11.2103 30.1105 11.0858L27.781 9.71326C27.683 9.65551 27.5578 9.67151 27.4775 9.75176L26.0738 11.1553C25.9933 11.236 25.9773 11.361 26.035 11.4593L27.3968 13.772C27.521 13.947 27.5523 14.1823 27.4705 14.3808C27.3888 14.5793 27.2165 14.7303 27.005 14.767L24.3845 15.4445C24.274 15.473 24.197 15.573 24.197 15.687V17.6715C24.197 17.7855 24.2743 17.885 24.3848 17.914L26.983 18.5863C27.1938 18.6228 27.3825 18.7673 27.4645 18.9648C27.5465 19.1623 27.533 19.3905 27.4103 19.5658L26.0353 21.899C25.9775 21.9973 25.9935 22.1223 26.074 22.2025L27.4775 23.6063C27.558 23.6865 27.683 23.7028 27.7813 23.6448L30.115 22.2695C30.2208 22.195 30.3463 22.1568 30.4725 22.1568ZM33.0003 20.514C30.8858 20.514 29.1655 18.7935 29.1655 16.679C29.1655 14.5645 30.8858 12.8443 33.0003 12.8443C35.1148 12.8443 36.835 14.5645 36.835 16.679C36.835 18.7935 35.1148 20.514 33.0003 20.514ZM33.0003 14.0943C31.575 14.0943 30.4155 15.2538 30.4155 16.679C30.4155 18.1043 31.575 19.264 33.0003 19.264C34.4255 19.264 35.585 18.1043 35.585 16.679C35.585 15.2538 34.4255 14.0943 33.0003 14.0943Z" fill="#65C1D6"/>
<path d="M23.7998 30.2083H17.6123C17.2671 30.2083 16.9873 29.9285 16.9873 29.5833C16.9873 29.238 17.2671 28.9583 17.6123 28.9583H23.7998C24.1451 28.9583 24.4248 29.238 24.4248 29.5833C24.4248 29.9285 24.1451 30.2083 23.7998 30.2083Z" fill="#65C1D6"/>
<path d="M23.7998 33.375H17.6123C17.2671 33.375 16.9873 33.0953 16.9873 32.75C16.9873 32.4047 17.2671 32.125 17.6123 32.125H23.7998C24.1451 32.125 24.4248 32.4047 24.4248 32.75C24.4248 33.0953 24.1451 33.375 23.7998 33.375Z" fill="#65C1D6"/>
<path d="M23.7998 36.5417H17.6123C17.2671 36.5417 16.9873 36.262 16.9873 35.9167C16.9873 35.5715 17.2671 35.2917 17.6123 35.2917H23.7998C24.1451 35.2917 24.4248 35.5715 24.4248 35.9167C24.4248 36.262 24.1451 36.5417 23.7998 36.5417Z" fill="#65C1D6"/>
<path d="M36.0938 30.2083H29.9062C29.561 30.2083 29.2812 29.9285 29.2812 29.5833C29.2812 29.238 29.561 28.9583 29.9062 28.9583H36.0938C36.439 28.9583 36.7188 29.238 36.7188 29.5833C36.7188 29.9285 36.439 30.2083 36.0938 30.2083Z" fill="#65C1D6"/>
<path d="M36.0938 33.375H29.9062C29.561 33.375 29.2812 33.0953 29.2812 32.75C29.2812 32.4047 29.561 32.125 29.9062 32.125H36.0938C36.439 32.125 36.7188 32.4047 36.7188 32.75C36.7188 33.0953 36.439 33.375 36.0938 33.375Z" fill="#65C1D6"/>
<path d="M36.0938 36.5417H29.9062C29.561 36.5417 29.2812 36.262 29.2812 35.9167C29.2812 35.5715 29.561 35.2917 29.9062 35.2917H36.0938C36.439 35.2917 36.7188 35.5715 36.7188 35.9167C36.7188 36.262 36.439 36.5417 36.0938 36.5417Z" fill="#65C1D6"/>
<path d="M48.3877 30.2083H42.2002C41.8549 30.2083 41.5752 29.9285 41.5752 29.5833C41.5752 29.238 41.8549 28.9583 42.2002 28.9583H48.3877C48.7329 28.9583 49.0127 29.238 49.0127 29.5833C49.0127 29.9285 48.7329 30.2083 48.3877 30.2083Z" fill="#65C1D6"/>
<path d="M48.3877 33.375H42.2002C41.8549 33.375 41.5752 33.0953 41.5752 32.75C41.5752 32.4047 41.8549 32.125 42.2002 32.125H48.3877C48.7329 32.125 49.0127 32.4047 49.0127 32.75C49.0127 33.0953 48.7329 33.375 48.3877 33.375Z" fill="#65C1D6"/>
<path d="M48.3877 36.5417H42.2002C41.8549 36.5417 41.5752 36.262 41.5752 35.9167C41.5752 35.5715 41.8549 35.2917 42.2002 35.2917H48.3877C48.7329 35.2917 49.0127 35.5715 49.0127 35.9167C49.0127 36.262 48.7329 36.5417 48.3877 36.5417Z" fill="#65C1D6"/>
</svg>
