<svg width="64" height="79" viewBox="0 0 64 79" fill="none" xmlns="http://www.w3.org/2000/svg">
<path d="M54.1562 68.3516V75H52.7109V66.5469H54.0781L54.1562 68.3516ZM53.8125 70.4531L53.2109 70.4297C53.2161 69.8516 53.3021 69.3177 53.4688 68.8281C53.6354 68.3333 53.8698 67.9036 54.1719 67.5391C54.474 67.1745 54.8333 66.8932 55.25 66.6953C55.6719 66.4922 56.138 66.3906 56.6484 66.3906C57.0651 66.3906 57.4401 66.4479 57.7734 66.5625C58.1068 66.6719 58.3906 66.849 58.625 67.0938C58.8646 67.3385 59.0469 67.6562 59.1719 68.0469C59.2969 68.4323 59.3594 68.9036 59.3594 69.4609V75H57.9062V69.4453C57.9062 69.0026 57.8411 68.6484 57.7109 68.3828C57.5807 68.112 57.3906 67.9167 57.1406 67.7969C56.8906 67.6719 56.5833 67.6094 56.2188 67.6094C55.8594 67.6094 55.5312 67.6849 55.2344 67.8359C54.9427 67.987 54.6901 68.1953 54.4766 68.4609C54.2682 68.7266 54.1042 69.0312 53.9844 69.375C53.8698 69.7135 53.8125 70.0729 53.8125 70.4531Z" fill="#0D0D0C"/>
<path d="M49.2031 66.5469H50.5156V74.8203C50.5156 75.5651 50.3646 76.2005 50.0625 76.7266C49.7604 77.2526 49.3385 77.651 48.7969 77.9219C48.2604 78.1979 47.6406 78.3359 46.9375 78.3359C46.6458 78.3359 46.3021 78.2891 45.9062 78.1953C45.5156 78.1068 45.1302 77.9531 44.75 77.7344C44.375 77.5208 44.0599 77.2318 43.8047 76.8672L44.5625 76.0078C44.9167 76.4349 45.2865 76.7318 45.6719 76.8984C46.0625 77.0651 46.4479 77.1484 46.8281 77.1484C47.2865 77.1484 47.6823 77.0625 48.0156 76.8906C48.349 76.7188 48.6068 76.4635 48.7891 76.125C48.9766 75.7917 49.0703 75.3802 49.0703 74.8906V68.4062L49.2031 66.5469ZM43.3828 70.8672V70.7031C43.3828 70.0573 43.4583 69.4714 43.6094 68.9453C43.7656 68.4141 43.987 67.9583 44.2734 67.5781C44.5651 67.1979 44.9167 66.9062 45.3281 66.7031C45.7396 66.4948 46.2031 66.3906 46.7188 66.3906C47.25 66.3906 47.7135 66.4844 48.1094 66.6719C48.5104 66.8542 48.849 67.1224 49.125 67.4766C49.4062 67.8255 49.6276 68.2474 49.7891 68.7422C49.9505 69.237 50.0625 69.7969 50.125 70.4219V71.1406C50.0677 71.7604 49.9557 72.3177 49.7891 72.8125C49.6276 73.3073 49.4062 73.7292 49.125 74.0781C48.849 74.4271 48.5104 74.6953 48.1094 74.8828C47.7083 75.0651 47.2396 75.1562 46.7031 75.1562C46.1979 75.1562 45.7396 75.0495 45.3281 74.8359C44.9219 74.6224 44.5729 74.3229 44.2812 73.9375C43.9896 73.5521 43.7656 73.099 43.6094 72.5781C43.4583 72.0521 43.3828 71.4818 43.3828 70.8672ZM44.8281 70.7031V70.8672C44.8281 71.2891 44.8698 71.6849 44.9531 72.0547C45.0417 72.4245 45.1745 72.75 45.3516 73.0312C45.5339 73.3125 45.7656 73.5339 46.0469 73.6953C46.3281 73.8516 46.6641 73.9297 47.0547 73.9297C47.5339 73.9297 47.9297 73.8281 48.2422 73.625C48.5547 73.4219 48.8021 73.1536 48.9844 72.8203C49.1719 72.487 49.3177 72.125 49.4219 71.7344V69.8516C49.3646 69.5651 49.276 69.2891 49.1562 69.0234C49.0417 68.7526 48.8906 68.513 48.7031 68.3047C48.5208 68.0911 48.2943 67.9219 48.0234 67.7969C47.7526 67.6719 47.4349 67.6094 47.0703 67.6094C46.6745 67.6094 46.3333 67.6927 46.0469 67.8594C45.7656 68.0208 45.5339 68.2448 45.3516 68.5312C45.1745 68.8125 45.0417 69.1406 44.9531 69.5156C44.8698 69.8854 44.8281 70.2812 44.8281 70.7031Z" fill="#0D0D0C"/>
<path d="M41.4062 66.5469V75H39.9531V66.5469H41.4062ZM39.8438 64.3047C39.8438 64.0703 39.9141 63.8724 40.0547 63.7109C40.2005 63.5495 40.4141 63.4688 40.6953 63.4688C40.9714 63.4688 41.1823 63.5495 41.3281 63.7109C41.4792 63.8724 41.5547 64.0703 41.5547 64.3047C41.5547 64.5286 41.4792 64.7214 41.3281 64.8828C41.1823 65.0391 40.9714 65.1172 40.6953 65.1172C40.4141 65.1172 40.2005 65.0391 40.0547 64.8828C39.9141 64.7214 39.8438 64.5286 39.8438 64.3047Z" fill="#0D0D0C"/>
<path d="M36.4922 72.7578C36.4922 72.5495 36.4453 72.3568 36.3516 72.1797C36.263 71.9974 36.0781 71.8333 35.7969 71.6875C35.5208 71.5365 35.1042 71.4062 34.5469 71.2969C34.0781 71.1979 33.6536 71.0807 33.2734 70.9453C32.8984 70.8099 32.5781 70.6458 32.3125 70.4531C32.0521 70.2604 31.8516 70.0339 31.7109 69.7734C31.5703 69.513 31.5 69.2083 31.5 68.8594C31.5 68.526 31.5729 68.2109 31.7188 67.9141C31.8698 67.6172 32.0807 67.3542 32.3516 67.125C32.6276 66.8958 32.9583 66.7161 33.3438 66.5859C33.7292 66.4557 34.1589 66.3906 34.6328 66.3906C35.3099 66.3906 35.888 66.5104 36.3672 66.75C36.8464 66.9896 37.2135 67.3099 37.4688 67.7109C37.724 68.1068 37.8516 68.5469 37.8516 69.0312H36.4062C36.4062 68.7969 36.3359 68.5703 36.1953 68.3516C36.0599 68.1276 35.8594 67.9427 35.5938 67.7969C35.3333 67.651 35.013 67.5781 34.6328 67.5781C34.2318 67.5781 33.9062 67.6406 33.6562 67.7656C33.4115 67.8854 33.2318 68.0391 33.1172 68.2266C33.0078 68.4141 32.9531 68.612 32.9531 68.8203C32.9531 68.9766 32.9792 69.1172 33.0312 69.2422C33.0885 69.362 33.1875 69.474 33.3281 69.5781C33.4688 69.6771 33.6667 69.7708 33.9219 69.8594C34.1771 69.9479 34.5026 70.0365 34.8984 70.125C35.5911 70.2812 36.1615 70.4688 36.6094 70.6875C37.0573 70.9062 37.3906 71.1745 37.6094 71.4922C37.8281 71.8099 37.9375 72.1953 37.9375 72.6484C37.9375 73.0182 37.8594 73.3568 37.7031 73.6641C37.5521 73.9714 37.3307 74.237 37.0391 74.4609C36.7526 74.6797 36.4089 74.8516 36.0078 74.9766C35.612 75.0964 35.1667 75.1562 34.6719 75.1562C33.9271 75.1562 33.2969 75.0234 32.7812 74.7578C32.2656 74.4922 31.875 74.1484 31.6094 73.7266C31.3438 73.3047 31.2109 72.8594 31.2109 72.3906H32.6641C32.6849 72.7865 32.7995 73.1016 33.0078 73.3359C33.2161 73.5651 33.4714 73.7292 33.7734 73.8281C34.0755 73.9219 34.375 73.9688 34.6719 73.9688C35.0677 73.9688 35.3984 73.9167 35.6641 73.8125C35.9349 73.7083 36.1406 73.5651 36.2812 73.3828C36.4219 73.2005 36.4922 72.9922 36.4922 72.7578Z" fill="#0D0D0C"/>
<path d="M26.5938 75.1562C26.0052 75.1562 25.4714 75.0573 24.9922 74.8594C24.5182 74.6562 24.1094 74.3724 23.7656 74.0078C23.4271 73.6432 23.1667 73.2109 22.9844 72.7109C22.8021 72.2109 22.7109 71.6641 22.7109 71.0703V70.7422C22.7109 70.0547 22.8125 69.4427 23.0156 68.9062C23.2188 68.3646 23.4948 67.9062 23.8438 67.5312C24.1927 67.1562 24.5885 66.8724 25.0312 66.6797C25.474 66.487 25.9323 66.3906 26.4062 66.3906C27.0104 66.3906 27.5312 66.4948 27.9688 66.7031C28.4115 66.9115 28.7734 67.2031 29.0547 67.5781C29.3359 67.9479 29.5443 68.3854 29.6797 68.8906C29.8151 69.3906 29.8828 69.9375 29.8828 70.5312V71.1797H23.5703V70H28.4375V69.8906C28.4167 69.5156 28.3385 69.151 28.2031 68.7969C28.0729 68.4427 27.8646 68.151 27.5781 67.9219C27.2917 67.6927 26.901 67.5781 26.4062 67.5781C26.0781 67.5781 25.776 67.6484 25.5 67.7891C25.224 67.9245 24.987 68.1276 24.7891 68.3984C24.5911 68.6693 24.4375 69 24.3281 69.3906C24.2188 69.7812 24.1641 70.2318 24.1641 70.7422V71.0703C24.1641 71.4714 24.2188 71.849 24.3281 72.2031C24.4427 72.5521 24.6068 72.8594 24.8203 73.125C25.0391 73.3906 25.3021 73.599 25.6094 73.75C25.9219 73.901 26.276 73.9766 26.6719 73.9766C27.1823 73.9766 27.6146 73.8724 27.9688 73.6641C28.3229 73.4557 28.6328 73.1771 28.8984 72.8281L29.7734 73.5234C29.5911 73.7995 29.3594 74.0625 29.0781 74.3125C28.7969 74.5625 28.4505 74.7656 28.0391 74.9219C27.6328 75.0781 27.151 75.1562 26.5938 75.1562Z" fill="#0D0D0C"/>
<path d="M18.1094 75.1562C17.5208 75.1562 16.987 75.0573 16.5078 74.8594C16.0339 74.6562 15.625 74.3724 15.2812 74.0078C14.9427 73.6432 14.6823 73.2109 14.5 72.7109C14.3177 72.2109 14.2266 71.6641 14.2266 71.0703V70.7422C14.2266 70.0547 14.3281 69.4427 14.5312 68.9062C14.7344 68.3646 15.0104 67.9062 15.3594 67.5312C15.7083 67.1562 16.1042 66.8724 16.5469 66.6797C16.9896 66.487 17.4479 66.3906 17.9219 66.3906C18.526 66.3906 19.0469 66.4948 19.4844 66.7031C19.9271 66.9115 20.2891 67.2031 20.5703 67.5781C20.8516 67.9479 21.0599 68.3854 21.1953 68.8906C21.3307 69.3906 21.3984 69.9375 21.3984 70.5312V71.1797H15.0859V70H19.9531V69.8906C19.9323 69.5156 19.8542 69.151 19.7188 68.7969C19.5885 68.4427 19.3802 68.151 19.0938 67.9219C18.8073 67.6927 18.4167 67.5781 17.9219 67.5781C17.5938 67.5781 17.2917 67.6484 17.0156 67.7891C16.7396 67.9245 16.5026 68.1276 16.3047 68.3984C16.1068 68.6693 15.9531 69 15.8438 69.3906C15.7344 69.7812 15.6797 70.2318 15.6797 70.7422V71.0703C15.6797 71.4714 15.7344 71.849 15.8438 72.2031C15.9583 72.5521 16.1224 72.8594 16.3359 73.125C16.5547 73.3906 16.8177 73.599 17.125 73.75C17.4375 73.901 17.7917 73.9766 18.1875 73.9766C18.6979 73.9766 19.1302 73.8724 19.4844 73.6641C19.8385 73.4557 20.1484 73.1771 20.4141 72.8281L21.2891 73.5234C21.1068 73.7995 20.875 74.0625 20.5938 74.3125C20.3125 74.5625 19.9661 74.7656 19.5547 74.9219C19.1484 75.0781 18.6667 75.1562 18.1094 75.1562Z" fill="#0D0D0C"/>
<path d="M7.39844 75H5.02344L5.03906 73.7734H7.39844C8.21094 73.7734 8.88802 73.6042 9.42969 73.2656C9.97135 72.9219 10.3776 72.4427 10.6484 71.8281C10.9245 71.2083 11.0625 70.4844 11.0625 69.6562V68.9609C11.0625 68.3099 10.9844 67.7318 10.8281 67.2266C10.6719 66.7161 10.4427 66.2865 10.1406 65.9375C9.83854 65.5833 9.46875 65.3151 9.03125 65.1328C8.59896 64.9505 8.10156 64.8594 7.53906 64.8594H4.97656V63.625H7.53906C8.28385 63.625 8.96354 63.75 9.57812 64C10.1927 64.2448 10.7214 64.6016 11.1641 65.0703C11.612 65.5339 11.9557 66.0964 12.1953 66.7578C12.4349 67.4141 12.5547 68.1536 12.5547 68.9766V69.6562C12.5547 70.4792 12.4349 71.2214 12.1953 71.8828C11.9557 72.5391 11.6094 73.099 11.1562 73.5625C10.7083 74.026 10.1667 74.3828 9.53125 74.6328C8.90104 74.8776 8.1901 75 7.39844 75ZM5.82812 63.625V75H4.32031V63.625H5.82812Z" fill="#0D0D0C"/>
<path d="M49.6942 21.4233L32.3124 11.3883C32.2175 11.3332 32.1097 11.3043 31.9999 11.3043C31.8902 11.3043 31.7824 11.3332 31.6874 11.3883L14.3057 21.4233C14.2107 21.4781 14.1318 21.557 14.0769 21.652C14.022 21.747 13.9932 21.8548 13.9932 21.9645V42.0355C13.9932 42.1452 14.022 42.253 14.0769 42.348C14.1318 42.443 14.2107 42.5219 14.3057 42.5768L31.6874 52.6118C31.7824 52.6666 31.8902 52.6955 31.9999 52.6955C32.1096 52.6955 32.2174 52.6666 32.3124 52.6118L49.6942 42.5768C49.7892 42.5219 49.8681 42.443 49.9229 42.348C49.9778 42.253 50.0067 42.1452 50.0067 42.0355V21.9645C50.0067 21.8548 49.9778 21.747 49.9229 21.652C49.8681 21.557 49.7892 21.4781 49.6942 21.4233ZM48.7567 41.6745L31.9999 51.35L15.2432 41.675V22.325L31.9999 12.65L48.7567 22.325V41.6745Z" fill="#846F75"/>
<path d="M31.4425 18.597C29.276 18.7701 27.2468 19.726 25.7338 21.2863C24.2209 22.8465 23.3278 24.9043 23.2215 27.075C23.1675 28.3764 23.4017 29.6736 23.9073 30.874C24.413 32.0744 25.1776 33.1482 26.1465 34.0187C26.6435 34.4782 27.0386 35.0367 27.3063 35.6583C27.5741 36.2799 27.7085 36.9507 27.701 37.6275V37.73C27.7014 38.0195 27.7766 38.304 27.9193 38.5559C28.062 38.8078 28.2673 39.0186 28.5155 39.1677V42.9467C28.516 43.4359 28.7105 43.9048 29.0563 44.2507C29.4022 44.5966 29.8711 44.7911 30.3602 44.7917H30.3932V45.4942C30.3937 45.8701 30.5432 46.2305 30.8091 46.4963C31.0749 46.7621 31.4353 46.9116 31.8112 46.912H32.3362C32.7121 46.9116 33.0725 46.7621 33.3384 46.4963C33.6042 46.2305 33.7537 45.8701 33.7542 45.4942V44.7917H33.787C34.2761 44.7912 34.7451 44.5966 35.091 44.2508C35.4369 43.9049 35.6314 43.4359 35.632 42.9467V39.1665C35.8801 39.0173 36.0854 38.8065 36.2281 38.5546C36.3707 38.3027 36.4459 38.0182 36.4462 37.7287V37.5457C36.4545 36.8678 36.6029 36.1988 36.8821 35.581C37.1614 34.9632 37.5655 34.4098 38.069 33.9557C38.9678 33.1297 39.6861 32.1269 40.179 31.0101C40.6718 29.8933 40.9285 28.6867 40.9329 27.466C40.9373 26.2453 40.6894 25.0369 40.2046 23.9166C39.7199 22.7962 39.0088 21.7882 38.116 20.9557C37.2278 20.1215 36.176 19.481 35.0271 19.075C33.8783 18.6689 32.6576 18.5061 31.4425 18.597ZM32.5052 45.493C32.5051 45.5375 32.4873 45.5801 32.4558 45.6115C32.4244 45.643 32.3817 45.6607 32.3372 45.6607H31.8122C31.7677 45.6607 31.725 45.6431 31.6935 45.6116C31.662 45.5802 31.6443 45.5375 31.6442 45.493V44.7905H32.506L32.5052 45.493ZM33.788 43.5405H30.3605C30.2027 43.5403 30.0515 43.4775 29.94 43.366C29.8285 43.2544 29.7658 43.1032 29.7657 42.9455V39.4097H34.383V42.9455C34.3828 43.1032 34.3201 43.2545 34.2085 43.3661C34.097 43.4776 33.9457 43.5403 33.788 43.5405ZM37.2642 21.8695C38.0312 22.5845 38.642 23.4502 39.0585 24.4125C39.4749 25.3748 39.6879 26.4128 39.6841 27.4613C39.6803 28.5098 39.4599 29.5462 39.0365 30.5054C38.6131 31.4647 37.996 32.3261 37.224 33.0355C36.5933 33.6068 36.0876 34.3024 35.7388 35.0786C35.39 35.8548 35.2056 36.6948 35.1972 37.5457V37.7287C35.1971 37.843 35.1517 37.9525 35.0709 38.0333C34.9902 38.1141 34.8807 38.1595 34.7665 38.1597H29.382C29.2677 38.1595 29.1583 38.1141 29.0775 38.0333C28.9968 37.9525 28.9513 37.843 28.9512 37.7287V37.6262C28.9587 36.7743 28.7875 35.9303 28.4485 35.1488C28.1095 34.3672 27.6103 33.6654 26.9832 33.0887C26.1509 32.3408 25.4941 31.4183 25.0597 30.3871C24.6254 29.3559 24.4241 28.2415 24.4705 27.1235C24.5618 25.2597 25.3286 23.4929 26.6276 22.1533C27.9266 20.8136 29.6689 19.9927 31.529 19.844C31.7135 19.831 31.8968 19.8246 32.079 19.8247C34.0052 19.8186 35.8606 20.5503 37.2642 21.8695Z" fill="#846F75"/>
<path d="M30.702 32.1785C30.6723 32.1785 30.6425 32.1785 30.6128 32.1765C30.3662 32.1639 30.1251 32.0998 29.9048 31.9884C29.6844 31.877 29.4899 31.7208 29.3335 31.5297L27.1085 28.8102C26.9615 28.6306 26.8514 28.4237 26.7843 28.2014C26.7173 27.9792 26.6947 27.7459 26.7178 27.5149C26.7409 27.2839 26.8093 27.0597 26.919 26.8551C27.0288 26.6506 27.1777 26.4696 27.3574 26.3226C27.5371 26.1756 27.744 26.0654 27.9662 25.9984C28.1885 25.9314 28.4218 25.9087 28.6528 25.9318C28.8838 25.955 29.1079 26.0233 29.3125 26.1331C29.5171 26.2428 29.698 26.3918 29.845 26.5715L30.8333 27.7795L34.2733 24.3392C34.6048 24.0077 35.0544 23.8215 35.5233 23.8215C35.9921 23.8215 36.4418 24.0077 36.7733 24.3392C37.1048 24.6708 37.291 25.1204 37.291 25.5892C37.291 26.0581 37.1048 26.5077 36.7733 26.8392L31.952 31.6607C31.7883 31.8254 31.5935 31.9559 31.3789 32.0448C31.1643 32.1337 30.9343 32.1791 30.702 32.1785ZM28.477 27.1732C28.3791 27.1733 28.2831 27.2012 28.2004 27.2536C28.1176 27.306 28.0514 27.3809 28.0095 27.4694C27.9676 27.558 27.9517 27.6566 27.9637 27.7539C27.9756 27.8511 28.0149 27.943 28.077 28.0187L30.302 30.7385C30.3478 30.7945 30.4049 30.8403 30.4694 30.873C30.534 30.9056 30.6048 30.9244 30.677 30.928H30.702C30.77 30.9281 30.8374 30.9148 30.9002 30.8888C30.963 30.8627 31.0201 30.8245 31.068 30.7762L35.8895 25.9547C35.9376 25.9067 35.9758 25.8496 36.0018 25.7868C36.0279 25.724 36.0413 25.6567 36.0413 25.5887C36.0413 25.5208 36.0279 25.4534 36.0018 25.3906C35.9758 25.3278 35.9376 25.2708 35.8895 25.2227C35.791 25.1284 35.6598 25.0758 35.5234 25.0758C35.387 25.0758 35.2558 25.1284 35.1573 25.2227L31.2288 29.151C31.1671 29.2126 31.0931 29.2607 31.0117 29.292C30.9303 29.3234 30.8432 29.3373 30.7561 29.333C30.669 29.3287 30.5837 29.3061 30.5058 29.2669C30.4279 29.2276 30.3591 29.1725 30.3038 29.105L28.8788 27.3625C28.8299 27.3028 28.7682 27.2549 28.6983 27.2221C28.6285 27.1894 28.5522 27.1727 28.475 27.1732H28.477Z" fill="#F9B087"/>
<path d="M32 10.5298C31.8342 10.5298 31.6753 10.4639 31.5581 10.3467C31.4408 10.2295 31.375 10.0705 31.375 9.90475V5.33325C31.375 5.16749 31.4408 5.00852 31.5581 4.89131C31.6753 4.7741 31.8342 4.70825 32 4.70825C32.1658 4.70825 32.3247 4.7741 32.4419 4.89131C32.5592 5.00852 32.625 5.16749 32.625 5.33325V9.90475C32.625 10.0705 32.5592 10.2295 32.4419 10.3467C32.3247 10.4639 32.1658 10.5298 32 10.5298Z" fill="#F9B087"/>
<path d="M32 59.2918C31.8342 59.2918 31.6753 59.2259 31.5581 59.1087C31.4408 58.9915 31.375 58.8325 31.375 58.6668V54.0953C31.375 53.9295 31.4408 53.7705 31.5581 53.6533C31.6753 53.5361 31.8342 53.4703 32 53.4703C32.1658 53.4703 32.3247 53.5361 32.4419 53.6533C32.5592 53.7705 32.625 53.9295 32.625 54.0953V58.6668C32.625 58.8325 32.5592 58.9915 32.4419 59.1087C32.3247 59.2259 32.1658 59.2918 32 59.2918Z" fill="#F9B087"/>
<path d="M20.9527 13.49C20.8429 13.4901 20.7351 13.4612 20.64 13.4064C20.5449 13.3515 20.4659 13.2726 20.411 13.1775L18.1247 9.21848C18.0419 9.0749 18.0194 8.90427 18.0623 8.74414C18.1053 8.58401 18.21 8.44748 18.3536 8.3646C18.4972 8.28172 18.6678 8.25928 18.828 8.3022C18.9881 8.34512 19.1246 8.4499 19.2075 8.59348L21.4935 12.5525C21.5483 12.6475 21.5772 12.7552 21.5772 12.8649C21.5772 12.9745 21.5484 13.0823 21.4936 13.1773C21.4388 13.2723 21.36 13.3512 21.2651 13.4061C21.1701 13.4609 21.0624 13.4899 20.9527 13.49Z" fill="#F9B087"/>
<path d="M45.3345 55.719C45.2246 55.7191 45.1167 55.6903 45.0216 55.6354C44.9264 55.5806 44.8474 55.5016 44.7925 55.4065L42.5067 51.4475C42.465 51.3764 42.4378 51.2977 42.4267 51.2161C42.4155 51.1344 42.4206 51.0513 42.4417 50.9717C42.4627 50.892 42.4993 50.8172 42.5494 50.7518C42.5995 50.6863 42.662 50.6314 42.7334 50.5901C42.8048 50.5489 42.8836 50.5222 42.9653 50.5116C43.0471 50.501 43.1301 50.5066 43.2097 50.5282C43.2892 50.5498 43.3637 50.587 43.4288 50.6375C43.494 50.688 43.5485 50.7508 43.5892 50.8225L45.8752 54.7815C45.9301 54.8765 45.9589 54.9842 45.959 55.0939C45.959 55.2035 45.9301 55.3113 45.8753 55.4063C45.8206 55.5013 45.7417 55.5802 45.6468 55.6351C45.5519 55.69 45.4441 55.7189 45.3345 55.719Z" fill="#F9B087"/>
<path d="M43.0473 13.49C42.9377 13.4899 42.83 13.4609 42.735 13.4061C42.6401 13.3512 42.5613 13.2723 42.5065 13.1773C42.4517 13.0823 42.4228 12.9745 42.4229 12.8649C42.4229 12.7552 42.4518 12.6475 42.5066 12.5525L44.7923 8.59348C44.8752 8.4499 45.0117 8.34512 45.1719 8.3022C45.332 8.25928 45.5026 8.28172 45.6462 8.3646C45.7898 8.44748 45.8946 8.58401 45.9375 8.74414C45.9804 8.90427 45.958 9.0749 45.8751 9.21848L43.5891 13.1775C43.5342 13.2726 43.4552 13.3515 43.3601 13.4064C43.265 13.4612 43.1571 13.4901 43.0473 13.49Z" fill="#F9B087"/>
<path d="M18.6665 55.719C18.5568 55.7189 18.4491 55.69 18.3542 55.6351C18.2592 55.5802 18.1804 55.5013 18.1256 55.4063C18.0708 55.3113 18.042 55.2036 18.042 55.0939C18.042 54.9842 18.0709 54.8765 18.1257 54.7815L20.4117 50.8225C20.4952 50.6801 20.6316 50.5766 20.7912 50.5344C20.9507 50.4922 21.1205 50.5148 21.2634 50.5974C21.4063 50.6799 21.5108 50.8156 21.5541 50.9749C21.5973 51.1341 21.5758 51.304 21.4942 51.4475L19.2085 55.4065C19.1536 55.5016 19.0745 55.5806 18.9794 55.6355C18.8842 55.6903 18.7763 55.7192 18.6665 55.719Z" fill="#F9B087"/>
<path d="M58.6672 32.625H54.0957C53.9299 32.625 53.771 32.5592 53.6538 32.4419C53.5366 32.3247 53.4707 32.1658 53.4707 32C53.4707 31.8342 53.5366 31.6753 53.6538 31.5581C53.771 31.4408 53.9299 31.375 54.0957 31.375H58.6672C58.833 31.375 58.9919 31.4408 59.1091 31.5581C59.2264 31.6753 59.2922 31.8342 59.2922 32C59.2922 32.1658 59.2264 32.3247 59.1091 32.4419C58.9919 32.5592 58.833 32.625 58.6672 32.625Z" fill="#F9B087"/>
<path d="M9.90451 32.625H5.33301C5.16725 32.625 5.00828 32.5592 4.89107 32.4419C4.77386 32.3247 4.70801 32.1658 4.70801 32C4.70801 31.8342 4.77386 31.6753 4.89107 31.5581C5.00828 31.4408 5.16725 31.375 5.33301 31.375H9.90451C10.0703 31.375 10.2292 31.4408 10.3464 31.5581C10.4637 31.6753 10.5295 31.8342 10.5295 32C10.5295 32.1658 10.4637 32.3247 10.3464 32.4419C10.2292 32.5592 10.0703 32.625 9.90451 32.625Z" fill="#F9B087"/>
<path d="M9.00536 45.7867C8.86773 45.7868 8.73393 45.7415 8.62469 45.6578C8.51546 45.5741 8.43692 45.4566 8.40124 45.3237C8.36557 45.1908 8.37477 45.0498 8.4274 44.9227C8.48004 44.7955 8.57318 44.6893 8.69236 44.6205L12.6514 42.335C12.7948 42.2534 12.9647 42.2319 13.124 42.2751C13.2833 42.3184 13.419 42.4229 13.5015 42.5658C13.5841 42.7087 13.6067 42.8785 13.5645 43.038C13.5223 43.1976 13.4187 43.334 13.2764 43.4175L9.31736 45.7032C9.2225 45.758 9.11489 45.7868 9.00536 45.7867Z" fill="#F9B087"/>
<path d="M51.2348 21.406C51.0972 21.4061 50.9634 21.3608 50.8542 21.2771C50.745 21.1934 50.6664 21.076 50.6307 20.943C50.5951 20.8101 50.6043 20.6691 50.6569 20.542C50.7095 20.4148 50.8027 20.3086 50.9218 20.2398L54.8808 17.9538C55.0244 17.8709 55.1951 17.8484 55.3552 17.8914C55.5153 17.9343 55.6518 18.0391 55.7347 18.1827C55.8176 18.3262 55.84 18.4969 55.7971 18.657C55.7542 18.8171 55.6494 18.9536 55.5058 19.0365L51.5468 21.3223C51.4521 21.3772 51.3444 21.4061 51.2348 21.406Z" fill="#F9B087"/>
<path d="M54.9949 45.7867C54.8854 45.7868 54.7778 45.758 54.6829 45.7032L50.7239 43.4175C50.5816 43.334 50.478 43.1976 50.4358 43.038C50.3936 42.8785 50.4163 42.7087 50.4988 42.5658C50.5813 42.4229 50.717 42.3184 50.8763 42.2751C51.0356 42.2319 51.2055 42.2534 51.3489 42.335L55.3079 44.6205C55.4271 44.6893 55.5203 44.7955 55.5729 44.9227C55.6255 45.0498 55.6347 45.1908 55.5991 45.3237C55.5634 45.4566 55.4848 45.5741 55.3756 45.6578C55.2664 45.7415 55.1326 45.7868 54.9949 45.7867Z" fill="#F9B087"/>
<path d="M12.7652 21.406C12.6557 21.4061 12.548 21.3772 12.4532 21.3223L8.49424 19.0365C8.35066 18.9536 8.24588 18.8171 8.20296 18.657C8.16003 18.4969 8.18248 18.3262 8.26536 18.1827C8.34824 18.0391 8.48476 17.9343 8.6449 17.8914C8.80503 17.8484 8.97566 17.8709 9.11924 17.9538L13.0782 20.2398C13.1974 20.3086 13.2906 20.4148 13.3432 20.542C13.3958 20.6691 13.405 20.8101 13.3693 20.943C13.3337 21.076 13.2551 21.1934 13.1459 21.2771C13.0367 21.3608 12.9029 21.4061 12.7652 21.406Z" fill="#F9B087"/>
</svg>
