<svg width="85" height="75" viewBox="0 0 85 75" fill="none" xmlns="http://www.w3.org/2000/svg">
<path d="M83.125 62.8438H84.4375V71.1172C84.4375 71.862 84.2865 72.4974 83.9844 73.0234C83.6823 73.5495 83.2604 73.9479 82.7188 74.2188C82.1823 74.4948 81.5625 74.6328 80.8594 74.6328C80.5677 74.6328 80.224 74.5859 79.8281 74.4922C79.4375 74.4036 79.0521 74.25 78.6719 74.0312C78.2969 73.8177 77.9818 73.5286 77.7266 73.1641L78.4844 72.3047C78.8385 72.7318 79.2083 73.0286 79.5938 73.1953C79.9844 73.362 80.3698 73.4453 80.75 73.4453C81.2083 73.4453 81.6042 73.3594 81.9375 73.1875C82.2708 73.0156 82.5286 72.7604 82.7109 72.4219C82.8984 72.0885 82.9922 71.6771 82.9922 71.1875V64.7031L83.125 62.8438ZM77.3047 67.1641V67C77.3047 66.3542 77.3802 65.7682 77.5312 65.2422C77.6875 64.7109 77.9089 64.2552 78.1953 63.875C78.487 63.4948 78.8385 63.2031 79.25 63C79.6615 62.7917 80.125 62.6875 80.6406 62.6875C81.1719 62.6875 81.6354 62.7812 82.0312 62.9688C82.4323 63.151 82.7708 63.4193 83.0469 63.7734C83.3281 64.1224 83.5495 64.5443 83.7109 65.0391C83.8724 65.5339 83.9844 66.0938 84.0469 66.7188V67.4375C83.9896 68.0573 83.8776 68.6146 83.7109 69.1094C83.5495 69.6042 83.3281 70.026 83.0469 70.375C82.7708 70.724 82.4323 70.9922 82.0312 71.1797C81.6302 71.362 81.1615 71.4531 80.625 71.4531C80.1198 71.4531 79.6615 71.3464 79.25 71.1328C78.8438 70.9193 78.4948 70.6198 78.2031 70.2344C77.9115 69.849 77.6875 69.3958 77.5312 68.875C77.3802 68.349 77.3047 67.7786 77.3047 67.1641ZM78.75 67V67.1641C78.75 67.5859 78.7917 67.9818 78.875 68.3516C78.9635 68.7214 79.0964 69.0469 79.2734 69.3281C79.4557 69.6094 79.6875 69.8307 79.9688 69.9922C80.25 70.1484 80.5859 70.2266 80.9766 70.2266C81.4557 70.2266 81.8516 70.125 82.1641 69.9219C82.4766 69.7188 82.724 69.4505 82.9062 69.1172C83.0938 68.7839 83.2396 68.4219 83.3438 68.0312V66.1484C83.2865 65.862 83.1979 65.5859 83.0781 65.3203C82.9635 65.0495 82.8125 64.8099 82.625 64.6016C82.4427 64.388 82.2161 64.2188 81.9453 64.0938C81.6745 63.9688 81.3568 63.9062 80.9922 63.9062C80.5964 63.9062 80.2552 63.9896 79.9688 64.1562C79.6875 64.3177 79.4557 64.5417 79.2734 64.8281C79.0964 65.1094 78.9635 65.4375 78.875 65.8125C78.7917 66.1823 78.75 66.5781 78.75 67Z" fill="#0D0D0C"/>
<path d="M70.25 64.6484V71.2969H68.8047V62.8438H70.1719L70.25 64.6484ZM69.9062 66.75L69.3047 66.7266C69.3099 66.1484 69.3958 65.6146 69.5625 65.125C69.7292 64.6302 69.9635 64.2005 70.2656 63.8359C70.5677 63.4714 70.9271 63.1901 71.3438 62.9922C71.7656 62.7891 72.2318 62.6875 72.7422 62.6875C73.1589 62.6875 73.5339 62.7448 73.8672 62.8594C74.2005 62.9688 74.4844 63.1458 74.7188 63.3906C74.9583 63.6354 75.1406 63.9531 75.2656 64.3438C75.3906 64.7292 75.4531 65.2005 75.4531 65.7578V71.2969H74V65.7422C74 65.2995 73.9349 64.9453 73.8047 64.6797C73.6745 64.4089 73.4844 64.2135 73.2344 64.0938C72.9844 63.9688 72.6771 63.9062 72.3125 63.9062C71.9531 63.9062 71.625 63.9818 71.3281 64.1328C71.0365 64.2839 70.7839 64.4922 70.5703 64.7578C70.362 65.0234 70.1979 65.3281 70.0781 65.6719C69.9635 66.0104 69.9062 66.3698 69.9062 66.75Z" fill="#0D0D0C"/>
<path d="M66.4844 62.8438V71.2969H65.0312V62.8438H66.4844ZM64.9219 60.6016C64.9219 60.3672 64.9922 60.1693 65.1328 60.0078C65.2786 59.8464 65.4922 59.7656 65.7734 59.7656C66.0495 59.7656 66.2604 59.8464 66.4062 60.0078C66.5573 60.1693 66.6328 60.3672 66.6328 60.6016C66.6328 60.8255 66.5573 61.0182 66.4062 61.1797C66.2604 61.3359 66.0495 61.4141 65.7734 61.4141C65.4922 61.4141 65.2786 61.3359 65.1328 61.1797C64.9922 61.0182 64.9219 60.8255 64.9219 60.6016Z" fill="#0D0D0C"/>
<path d="M63.2188 62.8438V63.9531H58.6484V62.8438H63.2188ZM60.1953 60.7891H61.6406V69.2031C61.6406 69.4896 61.6849 69.7057 61.7734 69.8516C61.862 69.9974 61.9766 70.0938 62.1172 70.1406C62.2578 70.1875 62.4089 70.2109 62.5703 70.2109C62.6901 70.2109 62.8151 70.2005 62.9453 70.1797C63.0807 70.1536 63.1823 70.1328 63.25 70.1172L63.2578 71.2969C63.1432 71.3333 62.9922 71.3672 62.8047 71.3984C62.6224 71.4349 62.401 71.4531 62.1406 71.4531C61.7865 71.4531 61.4609 71.3828 61.1641 71.2422C60.8672 71.1016 60.6302 70.8672 60.4531 70.5391C60.2812 70.2057 60.1953 69.7578 60.1953 69.1953V60.7891Z" fill="#0D0D0C"/>
<path d="M57.9844 62.8438V63.9531H53.4141V62.8438H57.9844ZM54.9609 60.7891H56.4062V69.2031C56.4062 69.4896 56.4505 69.7057 56.5391 69.8516C56.6276 69.9974 56.7422 70.0938 56.8828 70.1406C57.0234 70.1875 57.1745 70.2109 57.3359 70.2109C57.4557 70.2109 57.5807 70.2005 57.7109 70.1797C57.8464 70.1536 57.9479 70.1328 58.0156 70.1172L58.0234 71.2969C57.9089 71.3333 57.7578 71.3672 57.5703 71.3984C57.388 71.4349 57.1667 71.4531 56.9062 71.4531C56.5521 71.4531 56.2266 71.3828 55.9297 71.2422C55.6328 71.1016 55.3958 70.8672 55.2188 70.5391C55.0469 70.2057 54.9609 69.7578 54.9609 69.1953V60.7891Z" fill="#0D0D0C"/>
<path d="M49.4688 71.4531C48.8802 71.4531 48.3464 71.3542 47.8672 71.1562C47.3932 70.9531 46.9844 70.6693 46.6406 70.3047C46.3021 69.9401 46.0417 69.5078 45.8594 69.0078C45.6771 68.5078 45.5859 67.9609 45.5859 67.3672V67.0391C45.5859 66.3516 45.6875 65.7396 45.8906 65.2031C46.0938 64.6615 46.3698 64.2031 46.7188 63.8281C47.0677 63.4531 47.4635 63.1693 47.9062 62.9766C48.349 62.7839 48.8073 62.6875 49.2812 62.6875C49.8854 62.6875 50.4062 62.7917 50.8438 63C51.2865 63.2083 51.6484 63.5 51.9297 63.875C52.2109 64.2448 52.4193 64.6823 52.5547 65.1875C52.6901 65.6875 52.7578 66.2344 52.7578 66.8281V67.4766H46.4453V66.2969H51.3125V66.1875C51.2917 65.8125 51.2135 65.4479 51.0781 65.0938C50.9479 64.7396 50.7396 64.4479 50.4531 64.2188C50.1667 63.9896 49.776 63.875 49.2812 63.875C48.9531 63.875 48.651 63.9453 48.375 64.0859C48.099 64.2214 47.862 64.4245 47.6641 64.6953C47.4661 64.9661 47.3125 65.2969 47.2031 65.6875C47.0938 66.0781 47.0391 66.5286 47.0391 67.0391V67.3672C47.0391 67.7682 47.0938 68.1458 47.2031 68.5C47.3177 68.849 47.4818 69.1562 47.6953 69.4219C47.9141 69.6875 48.1771 69.8958 48.4844 70.0469C48.7969 70.1979 49.151 70.2734 49.5469 70.2734C50.0573 70.2734 50.4896 70.1693 50.8438 69.9609C51.1979 69.7526 51.5078 69.474 51.7734 69.125L52.6484 69.8203C52.4661 70.0964 52.2344 70.3594 51.9531 70.6094C51.6719 70.8594 51.3255 71.0625 50.9141 71.2188C50.5078 71.375 50.026 71.4531 49.4688 71.4531Z" fill="#0D0D0C"/>
<path d="M42.6172 69.0547C42.6172 68.8464 42.5703 68.6536 42.4766 68.4766C42.388 68.2943 42.2031 68.1302 41.9219 67.9844C41.6458 67.8333 41.2292 67.7031 40.6719 67.5938C40.2031 67.4948 39.7786 67.3776 39.3984 67.2422C39.0234 67.1068 38.7031 66.9427 38.4375 66.75C38.1771 66.5573 37.9766 66.3307 37.8359 66.0703C37.6953 65.8099 37.625 65.5052 37.625 65.1562C37.625 64.8229 37.6979 64.5078 37.8438 64.2109C37.9948 63.9141 38.2057 63.651 38.4766 63.4219C38.7526 63.1927 39.0833 63.013 39.4688 62.8828C39.8542 62.7526 40.2839 62.6875 40.7578 62.6875C41.4349 62.6875 42.013 62.8073 42.4922 63.0469C42.9714 63.2865 43.3385 63.6068 43.5938 64.0078C43.849 64.4036 43.9766 64.8438 43.9766 65.3281H42.5312C42.5312 65.0938 42.4609 64.8672 42.3203 64.6484C42.1849 64.4245 41.9844 64.2396 41.7188 64.0938C41.4583 63.9479 41.138 63.875 40.7578 63.875C40.3568 63.875 40.0312 63.9375 39.7812 64.0625C39.5365 64.1823 39.3568 64.3359 39.2422 64.5234C39.1328 64.7109 39.0781 64.9089 39.0781 65.1172C39.0781 65.2734 39.1042 65.4141 39.1562 65.5391C39.2135 65.6589 39.3125 65.7708 39.4531 65.875C39.5938 65.974 39.7917 66.0677 40.0469 66.1562C40.3021 66.2448 40.6276 66.3333 41.0234 66.4219C41.7161 66.5781 42.2865 66.7656 42.7344 66.9844C43.1823 67.2031 43.5156 67.4714 43.7344 67.7891C43.9531 68.1068 44.0625 68.4922 44.0625 68.9453C44.0625 69.3151 43.9844 69.6536 43.8281 69.9609C43.6771 70.2682 43.4557 70.5339 43.1641 70.7578C42.8776 70.9766 42.5339 71.1484 42.1328 71.2734C41.737 71.3932 41.2917 71.4531 40.7969 71.4531C40.0521 71.4531 39.4219 71.3203 38.9062 71.0547C38.3906 70.7891 38 70.4453 37.7344 70.0234C37.4688 69.6016 37.3359 69.1562 37.3359 68.6875H38.7891C38.8099 69.0833 38.9245 69.3984 39.1328 69.6328C39.3411 69.862 39.5964 70.026 39.8984 70.125C40.2005 70.2188 40.5 70.2656 40.7969 70.2656C41.1927 70.2656 41.5234 70.2135 41.7891 70.1094C42.0599 70.0052 42.2656 69.862 42.4062 69.6797C42.5469 69.4974 42.6172 69.2891 42.6172 69.0547Z" fill="#0D0D0C"/>
<path d="M31.4062 59.2969V71.2969H29.9531V59.2969H31.4062Z" fill="#0D0D0C"/>
<path d="M26.1172 69.8516V65.5C26.1172 65.1667 26.0495 64.8776 25.9141 64.6328C25.7839 64.3828 25.5859 64.1901 25.3203 64.0547C25.0547 63.9193 24.7266 63.8516 24.3359 63.8516C23.9714 63.8516 23.651 63.9141 23.375 64.0391C23.1042 64.1641 22.8906 64.3281 22.7344 64.5312C22.5833 64.7344 22.5078 64.9531 22.5078 65.1875H21.0625C21.0625 64.8854 21.1406 64.5859 21.2969 64.2891C21.4531 63.9922 21.6771 63.724 21.9688 63.4844C22.2656 63.2396 22.6198 63.0469 23.0312 62.9062C23.4479 62.7604 23.9115 62.6875 24.4219 62.6875C25.0365 62.6875 25.5781 62.7917 26.0469 63C26.5208 63.2083 26.8906 63.5234 27.1562 63.9453C27.4271 64.362 27.5625 64.8854 27.5625 65.5156V69.4531C27.5625 69.7344 27.5859 70.0339 27.6328 70.3516C27.6849 70.6693 27.7604 70.9427 27.8594 71.1719V71.2969H26.3516C26.2786 71.1302 26.2214 70.9089 26.1797 70.6328C26.138 70.3516 26.1172 70.0911 26.1172 69.8516ZM26.3672 66.1719L26.3828 67.1875H24.9219C24.5104 67.1875 24.1432 67.2214 23.8203 67.2891C23.4974 67.3516 23.2266 67.4479 23.0078 67.5781C22.7891 67.7083 22.6224 67.8724 22.5078 68.0703C22.3932 68.263 22.3359 68.4896 22.3359 68.75C22.3359 69.0156 22.3958 69.2578 22.5156 69.4766C22.6354 69.6953 22.8151 69.8698 23.0547 70C23.2995 70.125 23.599 70.1875 23.9531 70.1875C24.3958 70.1875 24.7865 70.0938 25.125 69.9062C25.4635 69.7188 25.7318 69.4896 25.9297 69.2188C26.1328 68.9479 26.2422 68.6849 26.2578 68.4297L26.875 69.125C26.8385 69.3438 26.7396 69.5859 26.5781 69.8516C26.4167 70.1172 26.2005 70.3724 25.9297 70.6172C25.6641 70.8568 25.3464 71.0573 24.9766 71.2188C24.612 71.375 24.2005 71.4531 23.7422 71.4531C23.1693 71.4531 22.6667 71.3411 22.2344 71.1172C21.8073 70.8932 21.474 70.5938 21.2344 70.2188C21 69.8385 20.8828 69.4141 20.8828 68.9453C20.8828 68.4922 20.9714 68.0938 21.1484 67.75C21.3255 67.401 21.5807 67.112 21.9141 66.8828C22.2474 66.6484 22.6484 66.4714 23.1172 66.3516C23.5859 66.2318 24.1094 66.1719 24.6875 66.1719H26.3672Z" fill="#0D0D0C"/>
<path d="M11.625 67.1641V66.9844C11.625 66.375 11.7135 65.8099 11.8906 65.2891C12.0677 64.763 12.3229 64.3073 12.6562 63.9219C12.9896 63.5312 13.3932 63.2292 13.8672 63.0156C14.3411 62.7969 14.8724 62.6875 15.4609 62.6875C16.0547 62.6875 16.5885 62.7969 17.0625 63.0156C17.5417 63.2292 17.9479 63.5312 18.2812 63.9219C18.6198 64.3073 18.8776 64.763 19.0547 65.2891C19.2318 65.8099 19.3203 66.375 19.3203 66.9844V67.1641C19.3203 67.7734 19.2318 68.3385 19.0547 68.8594C18.8776 69.3802 18.6198 69.8359 18.2812 70.2266C17.9479 70.612 17.5443 70.9141 17.0703 71.1328C16.6016 71.3464 16.0703 71.4531 15.4766 71.4531C14.8828 71.4531 14.349 71.3464 13.875 71.1328C13.401 70.9141 12.9948 70.612 12.6562 70.2266C12.3229 69.8359 12.0677 69.3802 11.8906 68.8594C11.7135 68.3385 11.625 67.7734 11.625 67.1641ZM13.0703 66.9844V67.1641C13.0703 67.5859 13.1198 67.9844 13.2188 68.3594C13.3177 68.7292 13.4661 69.0573 13.6641 69.3438C13.8672 69.6302 14.1198 69.8568 14.4219 70.0234C14.724 70.1849 15.0755 70.2656 15.4766 70.2656C15.8724 70.2656 16.2188 70.1849 16.5156 70.0234C16.8177 69.8568 17.0677 69.6302 17.2656 69.3438C17.4635 69.0573 17.612 68.7292 17.7109 68.3594C17.8151 67.9844 17.8672 67.5859 17.8672 67.1641V66.9844C17.8672 66.5677 17.8151 66.1745 17.7109 65.8047C17.612 65.4297 17.4609 65.099 17.2578 64.8125C17.0599 64.5208 16.8099 64.2917 16.5078 64.125C16.2109 63.9583 15.862 63.875 15.4609 63.875C15.0651 63.875 14.7161 63.9583 14.4141 64.125C14.1172 64.2917 13.8672 64.5208 13.6641 64.8125C13.4661 65.099 13.3177 65.4297 13.2188 65.8047C13.1198 66.1745 13.0703 66.5677 13.0703 66.9844Z" fill="#0D0D0C"/>
<path d="M9.72656 65.6328V69.7969C9.58594 70.0052 9.36198 70.2396 9.05469 70.5C8.7474 70.7552 8.32292 70.9792 7.78125 71.1719C7.24479 71.3594 6.55208 71.4531 5.70312 71.4531C5.01042 71.4531 4.3724 71.3333 3.78906 71.0938C3.21094 70.849 2.70833 70.4948 2.28125 70.0312C1.85938 69.5625 1.53125 68.9948 1.29688 68.3281C1.06771 67.6562 0.953125 66.8958 0.953125 66.0469V65.1641C0.953125 64.3151 1.05208 63.5573 1.25 62.8906C1.45312 62.224 1.75 61.6589 2.14062 61.1953C2.53125 60.7266 3.01042 60.3724 3.57812 60.1328C4.14583 59.888 4.79688 59.7656 5.53125 59.7656C6.40104 59.7656 7.1276 59.9167 7.71094 60.2188C8.29948 60.5156 8.75781 60.9271 9.08594 61.4531C9.41927 61.9792 9.63281 62.5781 9.72656 63.25H8.21875C8.15104 62.8385 8.01562 62.4635 7.8125 62.125C7.61458 61.7865 7.33073 61.5156 6.96094 61.3125C6.59115 61.1042 6.11458 61 5.53125 61C5.00521 61 4.54948 61.0964 4.16406 61.2891C3.77865 61.4818 3.46094 61.7578 3.21094 62.1172C2.96094 62.4766 2.77344 62.9115 2.64844 63.4219C2.52865 63.9323 2.46875 64.5078 2.46875 65.1484V66.0469C2.46875 66.7031 2.54427 67.2891 2.69531 67.8047C2.85156 68.3203 3.07292 68.7604 3.35938 69.125C3.64583 69.4844 3.98698 69.7578 4.38281 69.9453C4.78385 70.1328 5.22656 70.2266 5.71094 70.2266C6.2474 70.2266 6.68229 70.1823 7.01562 70.0938C7.34896 70 7.60938 69.8906 7.79688 69.7656C7.98438 69.6354 8.1276 69.513 8.22656 69.3984V66.8516H5.59375V65.6328H9.72656Z" fill="#0D0D0C"/>
<path d="M38.017 36.8909C31.7687 36.8909 26.629 32.1461 26.0035 26.0634C25.9612 26.4744 25.9395 26.8914 25.9395 27.3134C25.9395 33.9836 31.3467 39.3909 38.017 39.3909C44.6872 39.3909 50.0945 33.9836 50.0945 27.3134C50.0945 26.8914 50.0727 26.4744 50.0305 26.0634C49.405 32.1464 44.265 36.8909 38.017 36.8909Z" fill="#EBE7F2"/>
<path d="M60.6918 50.7386L53.3853 43.4324C52.5446 42.5916 52.4758 41.2734 53.1748 40.3519C53.0896 40.4164 53.0063 40.4851 52.9286 40.5631L51.2658 42.2259C50.3476 43.1444 50.3476 44.6334 51.2658 45.5516L58.5723 52.8579C59.4908 53.7764 60.9798 53.7764 61.8983 52.8579L63.5608 51.1951C63.6383 51.1176 63.7068 51.0349 63.7713 50.9499C62.8498 51.6481 61.5323 51.5794 60.6918 50.7386Z" fill="#EBE7F2"/>
<path d="M64.0034 47.4272L56.6969 40.1207C56.1347 39.5584 55.3872 39.2489 54.5919 39.2489C53.7967 39.2489 53.0492 39.5587 52.4872 40.1209L50.8244 41.7837C49.6639 42.9444 49.6639 44.8329 50.8247 45.9934L58.1312 53.2997C58.7117 53.8799 59.4739 54.1699 60.2362 54.1699C60.9987 54.1699 61.7612 53.8797 62.3412 53.2994L64.0037 51.6367C65.1642 50.4764 65.1639 48.5879 64.0034 47.4272ZM63.1199 50.7532L61.4574 52.4159C60.7844 53.0892 59.6887 53.0894 59.0149 52.4159L51.7084 45.1097C51.0354 44.4364 51.0352 43.3409 51.7082 42.6674L53.3709 41.0047C53.6972 40.6784 54.1307 40.4989 54.5919 40.4989C55.0534 40.4989 55.4869 40.6784 55.8132 41.0044L63.1197 48.3106C63.4459 48.6369 63.6254 49.0707 63.6254 49.5319C63.6254 49.9934 63.4459 50.4272 63.1199 50.7532Z" fill="#846F75"/>
<path d="M48.1777 39.9164C47.9583 39.6971 47.611 39.6716 47.362 39.8576C44.6465 41.8841 41.4148 42.9554 38.0165 42.9554C29.3918 42.9554 22.375 35.9386 22.375 27.3136C22.375 18.6889 29.3918 11.6721 38.0165 11.6721C46.6413 11.6721 53.658 18.6889 53.658 27.3136C53.658 30.7121 52.587 33.9436 50.5602 36.6591C50.3748 36.9079 50.3998 37.2554 50.6193 37.4749L51.6823 38.5381C51.9265 38.7824 52.322 38.7821 52.566 38.5381C52.8103 38.2941 52.8103 37.8984 52.566 37.6541L51.8792 36.9671C53.8625 34.1279 54.9077 30.8016 54.9077 27.3134C54.9077 17.9994 47.33 10.4219 38.0163 10.4219C28.7025 10.4219 21.125 17.9994 21.125 27.3134C21.125 36.6274 28.7025 44.2051 38.0165 44.2051C41.5045 44.2051 44.8305 43.1596 47.67 41.1766L48.357 41.8636C48.6012 42.1076 48.9967 42.1076 49.2407 41.8636C49.485 41.6196 49.485 41.2239 49.2407 40.9796L48.1777 39.9164Z" fill="#846F75"/>
<path d="M38.017 14.6111C31.0127 14.6111 25.3145 20.3094 25.3145 27.3136C25.3145 34.3179 31.0127 40.0161 38.017 40.0161C45.0212 40.0161 50.7197 34.3179 50.7197 27.3136C50.7197 20.3094 45.0212 14.6111 38.017 14.6111ZM38.017 38.7659C31.702 38.7659 26.5645 33.6284 26.5645 27.3134C26.5645 20.9986 31.702 15.8609 38.017 15.8609C44.332 15.8609 49.4697 20.9984 49.4697 27.3134C49.4697 33.6284 44.332 38.7659 38.017 38.7659Z" fill="#846F75"/>
<path d="M46.6175 27.1526C45.897 26.2981 42.3203 22.3301 38.0165 22.3301C33.7128 22.3301 30.1358 26.2979 29.4155 27.1526C29.3368 27.2461 29.3368 27.3811 29.4155 27.4744C30.136 28.3289 33.7128 32.2969 38.0165 32.2969C42.3203 32.2969 45.897 28.3291 46.6175 27.4744C46.6963 27.3809 46.6963 27.2461 46.6175 27.1526ZM38.0165 30.2344C36.4033 30.2344 35.0958 28.9266 35.0958 27.3136C35.0958 25.7004 36.4035 24.3929 38.0165 24.3929C39.6298 24.3929 40.9373 25.7006 40.9373 27.3136C40.9373 28.9266 39.6295 30.2344 38.0165 30.2344Z" fill="#ED9ABC"/>
</svg>
