<svg width="66" height="88" viewBox="0 0 66 88" fill="none" xmlns="http://www.w3.org/2000/svg">
<path d="M63.5703 84.7578C63.5703 84.5495 63.5234 84.3568 63.4297 84.1797C63.3411 83.9974 63.1562 83.8333 62.875 83.6875C62.599 83.5365 62.1823 83.4062 61.625 83.2969C61.1562 83.1979 60.7318 83.0807 60.3516 82.9453C59.9766 82.8099 59.6562 82.6458 59.3906 82.4531C59.1302 82.2604 58.9297 82.0339 58.7891 81.7734C58.6484 81.513 58.5781 81.2083 58.5781 80.8594C58.5781 80.526 58.651 80.2109 58.7969 79.9141C58.9479 79.6172 59.1589 79.3542 59.4297 79.125C59.7057 78.8958 60.0365 78.7161 60.4219 78.5859C60.8073 78.4557 61.237 78.3906 61.7109 78.3906C62.388 78.3906 62.9661 78.5104 63.4453 78.75C63.9245 78.9896 64.2917 79.3099 64.5469 79.7109C64.8021 80.1068 64.9297 80.5469 64.9297 81.0312H63.4844C63.4844 80.7969 63.4141 80.5703 63.2734 80.3516C63.138 80.1276 62.9375 79.9427 62.6719 79.7969C62.4115 79.651 62.0911 79.5781 61.7109 79.5781C61.3099 79.5781 60.9844 79.6406 60.7344 79.7656C60.4896 79.8854 60.3099 80.0391 60.1953 80.2266C60.0859 80.4141 60.0312 80.612 60.0312 80.8203C60.0312 80.9766 60.0573 81.1172 60.1094 81.2422C60.1667 81.362 60.2656 81.474 60.4062 81.5781C60.5469 81.6771 60.7448 81.7708 61 81.8594C61.2552 81.9479 61.5807 82.0365 61.9766 82.125C62.6693 82.2812 63.2396 82.4688 63.6875 82.6875C64.1354 82.9062 64.4688 83.1745 64.6875 83.4922C64.9062 83.8099 65.0156 84.1953 65.0156 84.6484C65.0156 85.0182 64.9375 85.3568 64.7812 85.6641C64.6302 85.9714 64.4089 86.237 64.1172 86.4609C63.8307 86.6797 63.487 86.8516 63.0859 86.9766C62.6901 87.0964 62.2448 87.1562 61.75 87.1562C61.0052 87.1562 60.375 87.0234 59.8594 86.7578C59.3438 86.4922 58.9531 86.1484 58.6875 85.7266C58.4219 85.3047 58.2891 84.8594 58.2891 84.3906H59.7422C59.763 84.7865 59.8776 85.1016 60.0859 85.3359C60.2943 85.5651 60.5495 85.7292 60.8516 85.8281C61.1536 85.9219 61.4531 85.9688 61.75 85.9688C62.1458 85.9688 62.4766 85.9167 62.7422 85.8125C63.013 85.7083 63.2188 85.5651 63.3594 85.3828C63.5 85.2005 63.5703 84.9922 63.5703 84.7578Z" fill="#0D0D0C"/>
<path d="M56.3281 75V87H54.875V75H56.3281Z" fill="#0D0D0C"/>
<path d="M51.0391 85.5547V81.2031C51.0391 80.8698 50.9714 80.5807 50.8359 80.3359C50.7057 80.0859 50.5078 79.8932 50.2422 79.7578C49.9766 79.6224 49.6484 79.5547 49.2578 79.5547C48.8932 79.5547 48.5729 79.6172 48.2969 79.7422C48.026 79.8672 47.8125 80.0312 47.6562 80.2344C47.5052 80.4375 47.4297 80.6562 47.4297 80.8906H45.9844C45.9844 80.5885 46.0625 80.2891 46.2188 79.9922C46.375 79.6953 46.599 79.4271 46.8906 79.1875C47.1875 78.9427 47.5417 78.75 47.9531 78.6094C48.3698 78.4635 48.8333 78.3906 49.3438 78.3906C49.9583 78.3906 50.5 78.4948 50.9688 78.7031C51.4427 78.9115 51.8125 79.2266 52.0781 79.6484C52.349 80.0651 52.4844 80.5885 52.4844 81.2188V85.1562C52.4844 85.4375 52.5078 85.737 52.5547 86.0547C52.6068 86.3724 52.6823 86.6458 52.7812 86.875V87H51.2734C51.2005 86.8333 51.1432 86.612 51.1016 86.3359C51.0599 86.0547 51.0391 85.7943 51.0391 85.5547ZM51.2891 81.875L51.3047 82.8906H49.8438C49.4323 82.8906 49.0651 82.9245 48.7422 82.9922C48.4193 83.0547 48.1484 83.151 47.9297 83.2812C47.7109 83.4115 47.5443 83.5755 47.4297 83.7734C47.3151 83.9661 47.2578 84.1927 47.2578 84.4531C47.2578 84.7188 47.3177 84.9609 47.4375 85.1797C47.5573 85.3984 47.737 85.5729 47.9766 85.7031C48.2214 85.8281 48.5208 85.8906 48.875 85.8906C49.3177 85.8906 49.7083 85.7969 50.0469 85.6094C50.3854 85.4219 50.6536 85.1927 50.8516 84.9219C51.0547 84.651 51.1641 84.388 51.1797 84.1328L51.7969 84.8281C51.7604 85.0469 51.6615 85.2891 51.5 85.5547C51.3385 85.8203 51.1224 86.0755 50.8516 86.3203C50.5859 86.5599 50.2682 86.7604 49.8984 86.9219C49.5339 87.0781 49.1224 87.1562 48.6641 87.1562C48.0911 87.1562 47.5885 87.0443 47.1562 86.8203C46.7292 86.5964 46.3958 86.2969 46.1562 85.9219C45.9219 85.5417 45.8047 85.1172 45.8047 84.6484C45.8047 84.1953 45.8932 83.7969 46.0703 83.4531C46.2474 83.1042 46.5026 82.8151 46.8359 82.5859C47.1693 82.3516 47.5703 82.1745 48.0391 82.0547C48.5078 81.9349 49.0312 81.875 49.6094 81.875H51.2891Z" fill="#0D0D0C"/>
<path d="M43.7344 78.5469V87H42.2812V78.5469H43.7344ZM42.1719 76.3047C42.1719 76.0703 42.2422 75.8724 42.3828 75.7109C42.5286 75.5495 42.7422 75.4688 43.0234 75.4688C43.2995 75.4688 43.5104 75.5495 43.6562 75.7109C43.8073 75.8724 43.8828 76.0703 43.8828 76.3047C43.8828 76.5286 43.8073 76.7214 43.6562 76.8828C43.5104 77.0391 43.2995 77.1172 43.0234 77.1172C42.7422 77.1172 42.5286 77.0391 42.3828 76.8828C42.2422 76.7214 42.1719 76.5286 42.1719 76.3047Z" fill="#0D0D0C"/>
<path d="M38.1875 79.875V87H36.7422V78.5469H38.1484L38.1875 79.875ZM40.8281 78.5L40.8203 79.8438C40.7005 79.8177 40.5859 79.8021 40.4766 79.7969C40.3724 79.7865 40.2526 79.7812 40.1172 79.7812C39.7839 79.7812 39.4896 79.8333 39.2344 79.9375C38.9792 80.0417 38.763 80.1875 38.5859 80.375C38.4089 80.5625 38.2682 80.7865 38.1641 81.0469C38.0651 81.3021 38 81.5833 37.9688 81.8906L37.5625 82.125C37.5625 81.6146 37.612 81.1354 37.7109 80.6875C37.8151 80.2396 37.974 79.8438 38.1875 79.5C38.401 79.151 38.6719 78.8802 39 78.6875C39.3333 78.4896 39.7292 78.3906 40.1875 78.3906C40.2917 78.3906 40.4115 78.4036 40.5469 78.4297C40.6823 78.4505 40.776 78.474 40.8281 78.5Z" fill="#0D0D0C"/>
<path d="M31.7656 87.1562C31.1771 87.1562 30.6432 87.0573 30.1641 86.8594C29.6901 86.6562 29.2812 86.3724 28.9375 86.0078C28.599 85.6432 28.3385 85.2109 28.1562 84.7109C27.974 84.2109 27.8828 83.6641 27.8828 83.0703V82.7422C27.8828 82.0547 27.9844 81.4427 28.1875 80.9062C28.3906 80.3646 28.6667 79.9062 29.0156 79.5312C29.3646 79.1562 29.7604 78.8724 30.2031 78.6797C30.6458 78.487 31.1042 78.3906 31.5781 78.3906C32.1823 78.3906 32.7031 78.4948 33.1406 78.7031C33.5833 78.9115 33.9453 79.2031 34.2266 79.5781C34.5078 79.9479 34.7161 80.3854 34.8516 80.8906C34.987 81.3906 35.0547 81.9375 35.0547 82.5312V83.1797H28.7422V82H33.6094V81.8906C33.5885 81.5156 33.5104 81.151 33.375 80.7969C33.2448 80.4427 33.0365 80.151 32.75 79.9219C32.4635 79.6927 32.0729 79.5781 31.5781 79.5781C31.25 79.5781 30.9479 79.6484 30.6719 79.7891C30.3958 79.9245 30.1589 80.1276 29.9609 80.3984C29.763 80.6693 29.6094 81 29.5 81.3906C29.3906 81.7812 29.3359 82.2318 29.3359 82.7422V83.0703C29.3359 83.4714 29.3906 83.849 29.5 84.2031C29.6146 84.5521 29.7786 84.8594 29.9922 85.125C30.2109 85.3906 30.474 85.599 30.7812 85.75C31.0938 85.901 31.4479 85.9766 31.8438 85.9766C32.3542 85.9766 32.7865 85.8724 33.1406 85.6641C33.4948 85.4557 33.8047 85.1771 34.0703 84.8281L34.9453 85.5234C34.763 85.7995 34.5312 86.0625 34.25 86.3125C33.9688 86.5625 33.6224 86.7656 33.2109 86.9219C32.8047 87.0781 32.3229 87.1562 31.7656 87.1562Z" fill="#0D0D0C"/>
<path d="M26.5625 78.5469V79.6562H21.9922V78.5469H26.5625ZM23.5391 76.4922H24.9844V84.9062C24.9844 85.1927 25.0286 85.4089 25.1172 85.5547C25.2057 85.7005 25.3203 85.7969 25.4609 85.8438C25.6016 85.8906 25.7526 85.9141 25.9141 85.9141C26.0339 85.9141 26.1589 85.9036 26.2891 85.8828C26.4245 85.8568 26.526 85.8359 26.5938 85.8203L26.6016 87C26.487 87.0365 26.3359 87.0703 26.1484 87.1016C25.9661 87.138 25.7448 87.1562 25.4844 87.1562C25.1302 87.1562 24.8047 87.0859 24.5078 86.9453C24.2109 86.8047 23.974 86.5703 23.7969 86.2422C23.625 85.9089 23.5391 85.4609 23.5391 84.8984V76.4922Z" fill="#0D0D0C"/>
<path d="M19.3047 85.5547V81.2031C19.3047 80.8698 19.237 80.5807 19.1016 80.3359C18.9714 80.0859 18.7734 79.8932 18.5078 79.7578C18.2422 79.6224 17.9141 79.5547 17.5234 79.5547C17.1589 79.5547 16.8385 79.6172 16.5625 79.7422C16.2917 79.8672 16.0781 80.0312 15.9219 80.2344C15.7708 80.4375 15.6953 80.6562 15.6953 80.8906H14.25C14.25 80.5885 14.3281 80.2891 14.4844 79.9922C14.6406 79.6953 14.8646 79.4271 15.1562 79.1875C15.4531 78.9427 15.8073 78.75 16.2188 78.6094C16.6354 78.4635 17.099 78.3906 17.6094 78.3906C18.224 78.3906 18.7656 78.4948 19.2344 78.7031C19.7083 78.9115 20.0781 79.2266 20.3438 79.6484C20.6146 80.0651 20.75 80.5885 20.75 81.2188V85.1562C20.75 85.4375 20.7734 85.737 20.8203 86.0547C20.8724 86.3724 20.9479 86.6458 21.0469 86.875V87H19.5391C19.4661 86.8333 19.4089 86.612 19.3672 86.3359C19.3255 86.0547 19.3047 85.7943 19.3047 85.5547ZM19.5547 81.875L19.5703 82.8906H18.1094C17.6979 82.8906 17.3307 82.9245 17.0078 82.9922C16.6849 83.0547 16.4141 83.151 16.1953 83.2812C15.9766 83.4115 15.8099 83.5755 15.6953 83.7734C15.5807 83.9661 15.5234 84.1927 15.5234 84.4531C15.5234 84.7188 15.5833 84.9609 15.7031 85.1797C15.8229 85.3984 16.0026 85.5729 16.2422 85.7031C16.487 85.8281 16.7865 85.8906 17.1406 85.8906C17.5833 85.8906 17.974 85.7969 18.3125 85.6094C18.651 85.4219 18.9193 85.1927 19.1172 84.9219C19.3203 84.651 19.4297 84.388 19.4453 84.1328L20.0625 84.8281C20.026 85.0469 19.9271 85.2891 19.7656 85.5547C19.6042 85.8203 19.388 86.0755 19.1172 86.3203C18.8516 86.5599 18.5339 86.7604 18.1641 86.9219C17.7995 87.0781 17.388 87.1562 16.9297 87.1562C16.3568 87.1562 15.8542 87.0443 15.4219 86.8203C14.9948 86.5964 14.6615 86.2969 14.4219 85.9219C14.1875 85.5417 14.0703 85.1172 14.0703 84.6484C14.0703 84.1953 14.1589 83.7969 14.3359 83.4531C14.513 83.1042 14.7682 82.8151 15.1016 82.5859C15.4349 82.3516 15.8359 82.1745 16.3047 82.0547C16.7734 81.9349 17.2969 81.875 17.875 81.875H19.5547Z" fill="#0D0D0C"/>
<path d="M1.72656 80.2266V87H0.273438V78.5469H1.64844L1.72656 80.2266ZM1.42969 82.4531L0.757812 82.4297C0.763021 81.8516 0.838542 81.3177 0.984375 80.8281C1.13021 80.3333 1.34635 79.9036 1.63281 79.5391C1.91927 79.1745 2.27604 78.8932 2.70312 78.6953C3.13021 78.4922 3.625 78.3906 4.1875 78.3906C4.58333 78.3906 4.94792 78.4479 5.28125 78.5625C5.61458 78.6719 5.90365 78.8464 6.14844 79.0859C6.39323 79.3255 6.58333 79.6328 6.71875 80.0078C6.85417 80.3828 6.92188 80.8359 6.92188 81.3672V87H5.47656V81.4375C5.47656 80.9948 5.40104 80.6406 5.25 80.375C5.10417 80.1094 4.89583 79.9167 4.625 79.7969C4.35417 79.6719 4.03646 79.6094 3.67188 79.6094C3.24479 79.6094 2.88802 79.6849 2.60156 79.8359C2.3151 79.987 2.08594 80.1953 1.91406 80.4609C1.74219 80.7266 1.61719 81.0312 1.53906 81.375C1.46615 81.7135 1.42969 82.0729 1.42969 82.4531ZM6.90625 81.6562L5.9375 81.9531C5.94271 81.4896 6.01823 81.0443 6.16406 80.6172C6.3151 80.1901 6.53125 79.8099 6.8125 79.4766C7.09896 79.1432 7.45052 78.8802 7.86719 78.6875C8.28385 78.4896 8.76042 78.3906 9.29688 78.3906C9.75 78.3906 10.151 78.4505 10.5 78.5703C10.8542 78.6901 11.151 78.875 11.3906 79.125C11.6354 79.3698 11.8203 79.6849 11.9453 80.0703C12.0703 80.4557 12.1328 80.9141 12.1328 81.4453V87H10.6797V81.4297C10.6797 80.9557 10.6042 80.5885 10.4531 80.3281C10.3073 80.0625 10.099 79.8776 9.82812 79.7734C9.5625 79.6641 9.24479 79.6094 8.875 79.6094C8.55729 79.6094 8.27604 79.6641 8.03125 79.7734C7.78646 79.8828 7.58073 80.0339 7.41406 80.2266C7.2474 80.4141 7.11979 80.6302 7.03125 80.875C6.94792 81.1198 6.90625 81.3802 6.90625 81.6562Z" fill="#0D0D0C"/>
<path d="M53.9844 56V68H52.5312V56H53.9844Z" fill="#0D0D0C"/>
<path d="M48.7578 66.0469V59.5469H50.2109V68H48.8281L48.7578 66.0469ZM49.0312 64.2656L49.6328 64.25C49.6328 64.8125 49.5729 65.3333 49.4531 65.8125C49.3385 66.2865 49.151 66.6979 48.8906 67.0469C48.6302 67.3958 48.2891 67.6693 47.8672 67.8672C47.4453 68.0599 46.9323 68.1562 46.3281 68.1562C45.9167 68.1562 45.5391 68.0964 45.1953 67.9766C44.8568 67.8568 44.5651 67.6719 44.3203 67.4219C44.0755 67.1719 43.8854 66.8464 43.75 66.4453C43.6198 66.0443 43.5547 65.5625 43.5547 65V59.5469H45V65.0156C45 65.3958 45.0417 65.7109 45.125 65.9609C45.2135 66.2057 45.3307 66.401 45.4766 66.5469C45.6276 66.6875 45.7943 66.7865 45.9766 66.8438C46.1641 66.901 46.3568 66.9297 46.5547 66.9297C47.1693 66.9297 47.6562 66.8125 48.0156 66.5781C48.375 66.3385 48.6328 66.0182 48.7891 65.6172C48.9505 65.2109 49.0312 64.7604 49.0312 64.2656Z" fill="#0D0D0C"/>
<path d="M40.1797 68H38.7344V58.6562C38.7344 58.0469 38.8438 57.5339 39.0625 57.1172C39.2865 56.6953 39.6068 56.3776 40.0234 56.1641C40.4401 55.9453 40.9349 55.8359 41.5078 55.8359C41.6745 55.8359 41.8411 55.8464 42.0078 55.8672C42.1797 55.888 42.3464 55.9193 42.5078 55.9609L42.4297 57.1406C42.3203 57.1146 42.1953 57.0964 42.0547 57.0859C41.9193 57.0755 41.7839 57.0703 41.6484 57.0703C41.3411 57.0703 41.0755 57.1328 40.8516 57.2578C40.6328 57.3776 40.4661 57.5547 40.3516 57.7891C40.237 58.0234 40.1797 58.3125 40.1797 58.6562V68ZM41.9766 59.5469V60.6562H37.3984V59.5469H41.9766Z" fill="#0D0D0C"/>
<path d="M33.0469 68.1562C32.4583 68.1562 31.9245 68.0573 31.4453 67.8594C30.9714 67.6562 30.5625 67.3724 30.2188 67.0078C29.8802 66.6432 29.6198 66.2109 29.4375 65.7109C29.2552 65.2109 29.1641 64.6641 29.1641 64.0703V63.7422C29.1641 63.0547 29.2656 62.4427 29.4688 61.9062C29.6719 61.3646 29.9479 60.9062 30.2969 60.5312C30.6458 60.1562 31.0417 59.8724 31.4844 59.6797C31.9271 59.487 32.3854 59.3906 32.8594 59.3906C33.4635 59.3906 33.9844 59.4948 34.4219 59.7031C34.8646 59.9115 35.2266 60.2031 35.5078 60.5781C35.7891 60.9479 35.9974 61.3854 36.1328 61.8906C36.2682 62.3906 36.3359 62.9375 36.3359 63.5312V64.1797H30.0234V63H34.8906V62.8906C34.8698 62.5156 34.7917 62.151 34.6562 61.7969C34.526 61.4427 34.3177 61.151 34.0312 60.9219C33.7448 60.6927 33.3542 60.5781 32.8594 60.5781C32.5312 60.5781 32.2292 60.6484 31.9531 60.7891C31.6771 60.9245 31.4401 61.1276 31.2422 61.3984C31.0443 61.6693 30.8906 62 30.7812 62.3906C30.6719 62.7812 30.6172 63.2318 30.6172 63.7422V64.0703C30.6172 64.4714 30.6719 64.849 30.7812 65.2031C30.8958 65.5521 31.0599 65.8594 31.2734 66.125C31.4922 66.3906 31.7552 66.599 32.0625 66.75C32.375 66.901 32.7292 66.9766 33.125 66.9766C33.6354 66.9766 34.0677 66.8724 34.4219 66.6641C34.776 66.4557 35.0859 66.1771 35.3516 65.8281L36.2266 66.5234C36.0443 66.7995 35.8125 67.0625 35.5312 67.3125C35.25 67.5625 34.9036 67.7656 34.4922 67.9219C34.0859 68.0781 33.6042 68.1562 33.0469 68.1562Z" fill="#0D0D0C"/>
<path d="M26.1953 65.7578C26.1953 65.5495 26.1484 65.3568 26.0547 65.1797C25.9661 64.9974 25.7812 64.8333 25.5 64.6875C25.224 64.5365 24.8073 64.4062 24.25 64.2969C23.7812 64.1979 23.3568 64.0807 22.9766 63.9453C22.6016 63.8099 22.2812 63.6458 22.0156 63.4531C21.7552 63.2604 21.5547 63.0339 21.4141 62.7734C21.2734 62.513 21.2031 62.2083 21.2031 61.8594C21.2031 61.526 21.276 61.2109 21.4219 60.9141C21.5729 60.6172 21.7839 60.3542 22.0547 60.125C22.3307 59.8958 22.6615 59.7161 23.0469 59.5859C23.4323 59.4557 23.862 59.3906 24.3359 59.3906C25.013 59.3906 25.5911 59.5104 26.0703 59.75C26.5495 59.9896 26.9167 60.3099 27.1719 60.7109C27.4271 61.1068 27.5547 61.5469 27.5547 62.0312H26.1094C26.1094 61.7969 26.0391 61.5703 25.8984 61.3516C25.763 61.1276 25.5625 60.9427 25.2969 60.7969C25.0365 60.651 24.7161 60.5781 24.3359 60.5781C23.9349 60.5781 23.6094 60.6406 23.3594 60.7656C23.1146 60.8854 22.9349 61.0391 22.8203 61.2266C22.7109 61.4141 22.6562 61.612 22.6562 61.8203C22.6562 61.9766 22.6823 62.1172 22.7344 62.2422C22.7917 62.362 22.8906 62.474 23.0312 62.5781C23.1719 62.6771 23.3698 62.7708 23.625 62.8594C23.8802 62.9479 24.2057 63.0365 24.6016 63.125C25.2943 63.2812 25.8646 63.4688 26.3125 63.6875C26.7604 63.9062 27.0938 64.1745 27.3125 64.4922C27.5312 64.8099 27.6406 65.1953 27.6406 65.6484C27.6406 66.0182 27.5625 66.3568 27.4062 66.6641C27.2552 66.9714 27.0339 67.237 26.7422 67.4609C26.4557 67.6797 26.112 67.8516 25.7109 67.9766C25.3151 68.0964 24.8698 68.1562 24.375 68.1562C23.6302 68.1562 23 68.0234 22.4844 67.7578C21.9688 67.4922 21.5781 67.1484 21.3125 66.7266C21.0469 66.3047 20.9141 65.8594 20.9141 65.3906H22.3672C22.388 65.7865 22.5026 66.1016 22.7109 66.3359C22.9193 66.5651 23.1745 66.7292 23.4766 66.8281C23.7786 66.9219 24.0781 66.9688 24.375 66.9688C24.7708 66.9688 25.1016 66.9167 25.3672 66.8125C25.638 66.7083 25.8438 66.5651 25.9844 66.3828C26.125 66.2005 26.1953 65.9922 26.1953 65.7578Z" fill="#0D0D0C"/>
<path d="M17.625 56.625H19.125V64.3203C19.125 65.1745 18.9349 65.8854 18.5547 66.4531C18.1745 67.0208 17.6693 67.4479 17.0391 67.7344C16.4141 68.0156 15.7344 68.1562 15 68.1562C14.2292 68.1562 13.5312 68.0156 12.9062 67.7344C12.2865 67.4479 11.7943 67.0208 11.4297 66.4531C11.0703 65.8854 10.8906 65.1745 10.8906 64.3203V56.625H12.3828V64.3203C12.3828 64.9141 12.4922 65.4036 12.7109 65.7891C12.9297 66.1745 13.2344 66.4609 13.625 66.6484C14.0208 66.8359 14.4792 66.9297 15 66.9297C15.526 66.9297 15.9844 66.8359 16.375 66.6484C16.7708 66.4609 17.0781 66.1745 17.2969 65.7891C17.5156 65.4036 17.625 64.9141 17.625 64.3203V56.625Z" fill="#0D0D0C"/>
<path d="M15.6161 30.6458L24.3949 25.5774L33.1738 30.6458V40.7828L24.3949 45.8512L15.6161 40.7828V30.6458Z" stroke="#868685"/>
<rect x="11" y="25.8936" width="8.92857" height="8.92857" rx="4.46429" fill="white"/>
<rect x="11.5" y="26.3936" width="7.92857" height="7.92857" rx="3.96429" stroke="#0D0D0C" stroke-opacity="0.5"/>
<rect x="11" y="35.7153" width="8.92857" height="8.92857" rx="4.46429" fill="white"/>
<rect x="11.5" y="36.2153" width="7.92857" height="7.92857" rx="3.96429" stroke="#0D0D0C" stroke-opacity="0.5"/>
<rect x="19.9307" y="20.5347" width="8.92857" height="8.92857" rx="4.46429" fill="white"/>
<rect x="20.4307" y="21.0347" width="7.92857" height="7.92857" rx="3.96429" stroke="#0D0D0C" stroke-opacity="0.5"/>
<rect x="37.7871" y="20.5347" width="8.92857" height="8.92857" rx="4.46429" fill="white"/>
<rect x="38.2871" y="21.0347" width="7.92857" height="7.92857" rx="3.96429" stroke="#0D0D0C" stroke-opacity="0.5"/>
<rect x="46.7129" y="25.8936" width="8.92857" height="8.92857" rx="4.46429" fill="white"/>
<rect x="47.2129" y="26.3936" width="7.92857" height="7.92857" rx="3.96429" stroke="#0D0D0C" stroke-opacity="0.5"/>
<rect x="19.9307" y="9.82178" width="8.92857" height="8.92857" rx="4.46429" fill="white"/>
<rect x="20.4307" y="10.3218" width="7.92857" height="7.92857" rx="3.96429" stroke="#0D0D0C" stroke-opacity="0.5"/>
<rect x="25.2871" width="8.92857" height="8.92857" rx="4.46429" fill="white"/>
<rect x="25.7871" y="0.5" width="7.92857" height="7.92857" rx="3.96429" stroke="#0D0D0C" stroke-opacity="0.5"/>
<rect x="19.9307" y="41.0718" width="8.92857" height="8.92857" rx="4.46429" fill="white"/>
<rect x="20.4307" y="41.5718" width="7.92857" height="7.92857" rx="3.96429" stroke="#0D0D0C" stroke-opacity="0.5"/>
<rect x="28.8564" y="25.8936" width="8.92857" height="8.92857" rx="4.46429" fill="white"/>
<rect x="29.3564" y="26.3936" width="7.92857" height="7.92857" rx="3.96429" stroke="#0D0D0C" stroke-opacity="0.5"/>
<rect x="28.8564" y="35.7153" width="8.92857" height="8.92857" rx="4.46429" fill="white"/>
<rect x="29.3564" y="36.2153" width="7.92857" height="7.92857" rx="3.96429" stroke="#0D0D0C" stroke-opacity="0.5"/>
<rect x="24.3936" y="17.8564" width="0.892857" height="3.57143" fill="#868685"/>
<rect x="27.2939" y="7.14355" width="0.892857" height="3.57143" transform="rotate(34.2371 27.2939 7.14355)" fill="#868685"/>
<rect x="39.1787" y="26.9946" width="0.892857" height="2.71077" transform="rotate(57.5297 39.1787 26.9946)" fill="#868685"/>
<rect x="47.6943" y="28.2446" width="0.892857" height="2.71077" transform="rotate(122.549 47.6943 28.2446)" fill="#868685"/>
</svg>
