<svg width="95" height="71" viewBox="0 0 95 71" fill="none" xmlns="http://www.w3.org/2000/svg">
<path d="M75.6719 63.3516V70H74.2266V61.5469H75.5938L75.6719 63.3516ZM75.3281 65.4531L74.7266 65.4297C74.7318 64.8516 74.8177 64.3177 74.9844 63.8281C75.151 63.3333 75.3854 62.9036 75.6875 62.5391C75.9896 62.1745 76.349 61.8932 76.7656 61.6953C77.1875 61.4922 77.6536 61.3906 78.1641 61.3906C78.5807 61.3906 78.9557 61.4479 79.2891 61.5625C79.6224 61.6719 79.9062 61.849 80.1406 62.0938C80.3802 62.3385 80.5625 62.6562 80.6875 63.0469C80.8125 63.4323 80.875 63.9036 80.875 64.4609V70H79.4219V64.4453C79.4219 64.0026 79.3568 63.6484 79.2266 63.3828C79.0964 63.112 78.9062 62.9167 78.6562 62.7969C78.4062 62.6719 78.099 62.6094 77.7344 62.6094C77.375 62.6094 77.0469 62.6849 76.75 62.8359C76.4583 62.987 76.2057 63.1953 75.9922 63.4609C75.7839 63.7266 75.6198 64.0312 75.5 64.375C75.3854 64.7135 75.3281 65.0729 75.3281 65.4531Z" fill="#0D0D0C"/>
<path d="M64.7188 65.8672V65.6875C64.7188 65.0781 64.8073 64.513 64.9844 63.9922C65.1615 63.4661 65.4167 63.0104 65.75 62.625C66.0833 62.2344 66.487 61.9323 66.9609 61.7188C67.4349 61.5 67.9661 61.3906 68.5547 61.3906C69.1484 61.3906 69.6823 61.5 70.1562 61.7188C70.6354 61.9323 71.0417 62.2344 71.375 62.625C71.7135 63.0104 71.9714 63.4661 72.1484 63.9922C72.3255 64.513 72.4141 65.0781 72.4141 65.6875V65.8672C72.4141 66.4766 72.3255 67.0417 72.1484 67.5625C71.9714 68.0833 71.7135 68.5391 71.375 68.9297C71.0417 69.3151 70.638 69.6172 70.1641 69.8359C69.6953 70.0495 69.1641 70.1562 68.5703 70.1562C67.9766 70.1562 67.4427 70.0495 66.9688 69.8359C66.4948 69.6172 66.0885 69.3151 65.75 68.9297C65.4167 68.5391 65.1615 68.0833 64.9844 67.5625C64.8073 67.0417 64.7188 66.4766 64.7188 65.8672ZM66.1641 65.6875V65.8672C66.1641 66.2891 66.2135 66.6875 66.3125 67.0625C66.4115 67.4323 66.5599 67.7604 66.7578 68.0469C66.9609 68.3333 67.2135 68.5599 67.5156 68.7266C67.8177 68.888 68.1693 68.9688 68.5703 68.9688C68.9661 68.9688 69.3125 68.888 69.6094 68.7266C69.9115 68.5599 70.1615 68.3333 70.3594 68.0469C70.5573 67.7604 70.7057 67.4323 70.8047 67.0625C70.9089 66.6875 70.9609 66.2891 70.9609 65.8672V65.6875C70.9609 65.2708 70.9089 64.8776 70.8047 64.5078C70.7057 64.1328 70.5547 63.8021 70.3516 63.5156C70.1536 63.224 69.9036 62.9948 69.6016 62.8281C69.3047 62.6615 68.9557 62.5781 68.5547 62.5781C68.1589 62.5781 67.8099 62.6615 67.5078 62.8281C67.2109 62.9948 66.9609 63.224 66.7578 63.5156C66.5599 63.8021 66.4115 64.1328 66.3125 64.5078C66.2135 64.8776 66.1641 65.2708 66.1641 65.6875Z" fill="#0D0D0C"/>
<path d="M62.7812 61.5469V70H61.3281V61.5469H62.7812ZM61.2188 59.3047C61.2188 59.0703 61.2891 58.8724 61.4297 58.7109C61.5755 58.5495 61.7891 58.4688 62.0703 58.4688C62.3464 58.4688 62.5573 58.5495 62.7031 58.7109C62.8542 58.8724 62.9297 59.0703 62.9297 59.3047C62.9297 59.5286 62.8542 59.7214 62.7031 59.8828C62.5573 60.0391 62.3464 60.1172 62.0703 60.1172C61.7891 60.1172 61.5755 60.0391 61.4297 59.8828C61.2891 59.7214 61.2188 59.5286 61.2188 59.3047Z" fill="#0D0D0C"/>
<path d="M59.5156 61.5469V62.6562H54.9453V61.5469H59.5156ZM56.4922 59.4922H57.9375V67.9062C57.9375 68.1927 57.9818 68.4089 58.0703 68.5547C58.1589 68.7005 58.2734 68.7969 58.4141 68.8438C58.5547 68.8906 58.7057 68.9141 58.8672 68.9141C58.987 68.9141 59.112 68.9036 59.2422 68.8828C59.3776 68.8568 59.4792 68.8359 59.5469 68.8203L59.5547 70C59.4401 70.0365 59.2891 70.0703 59.1016 70.1016C58.9193 70.138 58.6979 70.1562 58.4375 70.1562C58.0833 70.1562 57.7578 70.0859 57.4609 69.9453C57.1641 69.8047 56.9271 69.5703 56.75 69.2422C56.5781 68.9089 56.4922 68.4609 56.4922 67.8984V59.4922Z" fill="#0D0D0C"/>
<path d="M52.2578 68.5547V64.2031C52.2578 63.8698 52.1901 63.5807 52.0547 63.3359C51.9245 63.0859 51.7266 62.8932 51.4609 62.7578C51.1953 62.6224 50.8672 62.5547 50.4766 62.5547C50.112 62.5547 49.7917 62.6172 49.5156 62.7422C49.2448 62.8672 49.0312 63.0312 48.875 63.2344C48.724 63.4375 48.6484 63.6562 48.6484 63.8906H47.2031C47.2031 63.5885 47.2812 63.2891 47.4375 62.9922C47.5938 62.6953 47.8177 62.4271 48.1094 62.1875C48.4062 61.9427 48.7604 61.75 49.1719 61.6094C49.5885 61.4635 50.0521 61.3906 50.5625 61.3906C51.1771 61.3906 51.7188 61.4948 52.1875 61.7031C52.6615 61.9115 53.0312 62.2266 53.2969 62.6484C53.5677 63.0651 53.7031 63.5885 53.7031 64.2188V68.1562C53.7031 68.4375 53.7266 68.737 53.7734 69.0547C53.8255 69.3724 53.901 69.6458 54 69.875V70H52.4922C52.4193 69.8333 52.362 69.612 52.3203 69.3359C52.2786 69.0547 52.2578 68.7943 52.2578 68.5547ZM52.5078 64.875L52.5234 65.8906H51.0625C50.651 65.8906 50.2839 65.9245 49.9609 65.9922C49.638 66.0547 49.3672 66.151 49.1484 66.2812C48.9297 66.4115 48.763 66.5755 48.6484 66.7734C48.5339 66.9661 48.4766 67.1927 48.4766 67.4531C48.4766 67.7188 48.5365 67.9609 48.6562 68.1797C48.776 68.3984 48.9557 68.5729 49.1953 68.7031C49.4401 68.8281 49.7396 68.8906 50.0938 68.8906C50.5365 68.8906 50.9271 68.7969 51.2656 68.6094C51.6042 68.4219 51.8724 68.1927 52.0703 67.9219C52.2734 67.651 52.3828 67.388 52.3984 67.1328L53.0156 67.8281C52.9792 68.0469 52.8802 68.2891 52.7188 68.5547C52.5573 68.8203 52.3411 69.0755 52.0703 69.3203C51.8047 69.5599 51.487 69.7604 51.1172 69.9219C50.7526 70.0781 50.3411 70.1562 49.8828 70.1562C49.3099 70.1562 48.8073 70.0443 48.375 69.8203C47.9479 69.5964 47.6146 69.2969 47.375 68.9219C47.1406 68.5417 47.0234 68.1172 47.0234 67.6484C47.0234 67.1953 47.112 66.7969 47.2891 66.4531C47.4661 66.1042 47.7214 65.8151 48.0547 65.5859C48.388 65.3516 48.7891 65.1745 49.2578 65.0547C49.7266 64.9349 50.25 64.875 50.8281 64.875H52.5078Z" fill="#0D0D0C"/>
<path d="M43.5703 68.3594V58H45.0234V70H43.6953L43.5703 68.3594ZM37.8828 65.8672V65.7031C37.8828 65.0573 37.9609 64.4714 38.1172 63.9453C38.2786 63.4141 38.5052 62.9583 38.7969 62.5781C39.0938 62.1979 39.4453 61.9062 39.8516 61.7031C40.263 61.4948 40.7214 61.3906 41.2266 61.3906C41.7578 61.3906 42.2214 61.4844 42.6172 61.6719C43.0182 61.8542 43.3568 62.1224 43.6328 62.4766C43.9141 62.8255 44.1354 63.2474 44.2969 63.7422C44.4583 64.237 44.5703 64.7969 44.6328 65.4219V66.1406C44.5755 66.7604 44.4635 67.3177 44.2969 67.8125C44.1354 68.3073 43.9141 68.7292 43.6328 69.0781C43.3568 69.4271 43.0182 69.6953 42.6172 69.8828C42.2161 70.0651 41.7474 70.1562 41.2109 70.1562C40.7161 70.1562 40.263 70.0495 39.8516 69.8359C39.4453 69.6224 39.0938 69.3229 38.7969 68.9375C38.5052 68.5521 38.2786 68.099 38.1172 67.5781C37.9609 67.0521 37.8828 66.4818 37.8828 65.8672ZM39.3359 65.7031V65.8672C39.3359 66.2891 39.3776 66.6849 39.4609 67.0547C39.5495 67.4245 39.6849 67.75 39.8672 68.0312C40.0495 68.3125 40.2812 68.5339 40.5625 68.6953C40.8438 68.8516 41.1797 68.9297 41.5703 68.9297C42.0495 68.9297 42.4427 68.8281 42.75 68.625C43.0625 68.4219 43.3125 68.1536 43.5 67.8203C43.6875 67.487 43.8333 67.125 43.9375 66.7344V64.8516C43.875 64.5651 43.7839 64.2891 43.6641 64.0234C43.5495 63.7526 43.3984 63.513 43.2109 63.3047C43.0286 63.0911 42.8021 62.9219 42.5312 62.7969C42.2656 62.6719 41.9505 62.6094 41.5859 62.6094C41.1901 62.6094 40.849 62.6927 40.5625 62.8594C40.2812 63.0208 40.0495 63.2448 39.8672 63.5312C39.6849 63.8125 39.5495 64.1406 39.4609 64.5156C39.3776 64.8854 39.3359 65.2812 39.3359 65.7031Z" fill="#0D0D0C"/>
<path d="M35.9219 61.5469V70H34.4688V61.5469H35.9219ZM34.3594 59.3047C34.3594 59.0703 34.4297 58.8724 34.5703 58.7109C34.7161 58.5495 34.9297 58.4688 35.2109 58.4688C35.487 58.4688 35.6979 58.5495 35.8438 58.7109C35.9948 58.8724 36.0703 59.0703 36.0703 59.3047C36.0703 59.5286 35.9948 59.7214 35.8438 59.8828C35.6979 60.0391 35.487 60.1172 35.2109 60.1172C34.9297 60.1172 34.7161 60.0391 34.5703 59.8828C34.4297 59.7214 34.3594 59.5286 34.3594 59.3047Z" fill="#0D0D0C"/>
<path d="M32.0312 58V70H30.5781V58H32.0312Z" fill="#0D0D0C"/>
<path d="M26.7422 68.5547V64.2031C26.7422 63.8698 26.6745 63.5807 26.5391 63.3359C26.4089 63.0859 26.2109 62.8932 25.9453 62.7578C25.6797 62.6224 25.3516 62.5547 24.9609 62.5547C24.5964 62.5547 24.276 62.6172 24 62.7422C23.7292 62.8672 23.5156 63.0312 23.3594 63.2344C23.2083 63.4375 23.1328 63.6562 23.1328 63.8906H21.6875C21.6875 63.5885 21.7656 63.2891 21.9219 62.9922C22.0781 62.6953 22.3021 62.4271 22.5938 62.1875C22.8906 61.9427 23.2448 61.75 23.6562 61.6094C24.0729 61.4635 24.5365 61.3906 25.0469 61.3906C25.6615 61.3906 26.2031 61.4948 26.6719 61.7031C27.1458 61.9115 27.5156 62.2266 27.7812 62.6484C28.0521 63.0651 28.1875 63.5885 28.1875 64.2188V68.1562C28.1875 68.4375 28.2109 68.737 28.2578 69.0547C28.3099 69.3724 28.3854 69.6458 28.4844 69.875V70H26.9766C26.9036 69.8333 26.8464 69.612 26.8047 69.3359C26.763 69.0547 26.7422 68.7943 26.7422 68.5547ZM26.9922 64.875L27.0078 65.8906H25.5469C25.1354 65.8906 24.7682 65.9245 24.4453 65.9922C24.1224 66.0547 23.8516 66.151 23.6328 66.2812C23.4141 66.4115 23.2474 66.5755 23.1328 66.7734C23.0182 66.9661 22.9609 67.1927 22.9609 67.4531C22.9609 67.7188 23.0208 67.9609 23.1406 68.1797C23.2604 68.3984 23.4401 68.5729 23.6797 68.7031C23.9245 68.8281 24.224 68.8906 24.5781 68.8906C25.0208 68.8906 25.4115 68.7969 25.75 68.6094C26.0885 68.4219 26.3568 68.1927 26.5547 67.9219C26.7578 67.651 26.8672 67.388 26.8828 67.1328L27.5 67.8281C27.4635 68.0469 27.3646 68.2891 27.2031 68.5547C27.0417 68.8203 26.8255 69.0755 26.5547 69.3203C26.2891 69.5599 25.9714 69.7604 25.6016 69.9219C25.237 70.0781 24.8255 70.1562 24.3672 70.1562C23.7943 70.1562 23.2917 70.0443 22.8594 69.8203C22.4323 69.5964 22.099 69.2969 21.8594 68.9219C21.625 68.5417 21.5078 68.1172 21.5078 67.6484C21.5078 67.1953 21.5964 66.7969 21.7734 66.4531C21.9505 66.1042 22.2057 65.8151 22.5391 65.5859C22.8724 65.3516 23.2734 65.1745 23.7422 65.0547C24.2109 64.9349 24.7344 64.875 25.3125 64.875H26.9922Z" fill="#0D0D0C"/>
<path d="M16.7031 68.6953L19.0156 61.5469H20.4922L17.4531 70H16.4844L16.7031 68.6953ZM14.7734 61.5469L17.1562 68.7344L17.3203 70H16.3516L13.2891 61.5469H14.7734Z" fill="#0D0D0C"/>
<path d="M94.7266 39V51H93.2734V39H94.7266Z" fill="#0D0D0C"/>
<path d="M90.8359 42.5469V51H89.3828V42.5469H90.8359ZM89.2734 40.3047C89.2734 40.0703 89.3438 39.8724 89.4844 39.7109C89.6302 39.5495 89.8438 39.4688 90.125 39.4688C90.401 39.4688 90.612 39.5495 90.7578 39.7109C90.9089 39.8724 90.9844 40.0703 90.9844 40.3047C90.9844 40.5286 90.9089 40.7214 90.7578 40.8828C90.612 41.0391 90.401 41.1172 90.125 41.1172C89.8438 41.1172 89.6302 41.0391 89.4844 40.8828C89.3438 40.7214 89.2734 40.5286 89.2734 40.3047Z" fill="#0D0D0C"/>
<path d="M85.5469 49.5547V45.2031C85.5469 44.8698 85.4792 44.5807 85.3438 44.3359C85.2135 44.0859 85.0156 43.8932 84.75 43.7578C84.4844 43.6224 84.1562 43.5547 83.7656 43.5547C83.401 43.5547 83.0807 43.6172 82.8047 43.7422C82.5339 43.8672 82.3203 44.0312 82.1641 44.2344C82.013 44.4375 81.9375 44.6562 81.9375 44.8906H80.4922C80.4922 44.5885 80.5703 44.2891 80.7266 43.9922C80.8828 43.6953 81.1068 43.4271 81.3984 43.1875C81.6953 42.9427 82.0495 42.75 82.4609 42.6094C82.8776 42.4635 83.3411 42.3906 83.8516 42.3906C84.4661 42.3906 85.0078 42.4948 85.4766 42.7031C85.9505 42.9115 86.3203 43.2266 86.5859 43.6484C86.8568 44.0651 86.9922 44.5885 86.9922 45.2188V49.1562C86.9922 49.4375 87.0156 49.737 87.0625 50.0547C87.1146 50.3724 87.1901 50.6458 87.2891 50.875V51H85.7812C85.7083 50.8333 85.651 50.612 85.6094 50.3359C85.5677 50.0547 85.5469 49.7943 85.5469 49.5547ZM85.7969 45.875L85.8125 46.8906H84.3516C83.9401 46.8906 83.5729 46.9245 83.25 46.9922C82.9271 47.0547 82.6562 47.151 82.4375 47.2812C82.2188 47.4115 82.0521 47.5755 81.9375 47.7734C81.8229 47.9661 81.7656 48.1927 81.7656 48.4531C81.7656 48.7188 81.8255 48.9609 81.9453 49.1797C82.0651 49.3984 82.2448 49.5729 82.4844 49.7031C82.7292 49.8281 83.0286 49.8906 83.3828 49.8906C83.8255 49.8906 84.2161 49.7969 84.5547 49.6094C84.8932 49.4219 85.1615 49.1927 85.3594 48.9219C85.5625 48.651 85.6719 48.388 85.6875 48.1328L86.3047 48.8281C86.2682 49.0469 86.1693 49.2891 86.0078 49.5547C85.8464 49.8203 85.6302 50.0755 85.3594 50.3203C85.0938 50.5599 84.776 50.7604 84.4062 50.9219C84.0417 51.0781 83.6302 51.1562 83.1719 51.1562C82.599 51.1562 82.0964 51.0443 81.6641 50.8203C81.237 50.5964 80.9036 50.2969 80.6641 49.9219C80.4297 49.5417 80.3125 49.1172 80.3125 48.6484C80.3125 48.1953 80.401 47.7969 80.5781 47.4531C80.7552 47.1042 81.0104 46.8151 81.3438 46.5859C81.6771 46.3516 82.0781 46.1745 82.5469 46.0547C83.0156 45.9349 83.5391 45.875 84.1172 45.875H85.7969Z" fill="#0D0D0C"/>
<path d="M78.8672 42.5469V43.6562H74.2969V42.5469H78.8672ZM75.8438 40.4922H77.2891V48.9062C77.2891 49.1927 77.3333 49.4089 77.4219 49.5547C77.5104 49.7005 77.625 49.7969 77.7656 49.8438C77.9062 49.8906 78.0573 49.9141 78.2188 49.9141C78.3385 49.9141 78.4635 49.9036 78.5938 49.8828C78.7292 49.8568 78.8307 49.8359 78.8984 49.8203L78.9062 51C78.7917 51.0365 78.6406 51.0703 78.4531 51.1016C78.2708 51.138 78.0495 51.1562 77.7891 51.1562C77.4349 51.1562 77.1094 51.0859 76.8125 50.9453C76.5156 50.8047 76.2786 50.5703 76.1016 50.2422C75.9297 49.9089 75.8438 49.4609 75.8438 48.8984V40.4922Z" fill="#0D0D0C"/>
<path d="M67.9297 44.3516V51H66.4844V42.5469H67.8516L67.9297 44.3516ZM67.5859 46.4531L66.9844 46.4297C66.9896 45.8516 67.0755 45.3177 67.2422 44.8281C67.4089 44.3333 67.6432 43.9036 67.9453 43.5391C68.2474 43.1745 68.6068 42.8932 69.0234 42.6953C69.4453 42.4922 69.9115 42.3906 70.4219 42.3906C70.8385 42.3906 71.2135 42.4479 71.5469 42.5625C71.8802 42.6719 72.1641 42.849 72.3984 43.0938C72.638 43.3385 72.8203 43.6562 72.9453 44.0469C73.0703 44.4323 73.1328 44.9036 73.1328 45.4609V51H71.6797V45.4453C71.6797 45.0026 71.6146 44.6484 71.4844 44.3828C71.3542 44.112 71.1641 43.9167 70.9141 43.7969C70.6641 43.6719 70.3568 43.6094 69.9922 43.6094C69.6328 43.6094 69.3047 43.6849 69.0078 43.8359C68.7161 43.987 68.4635 44.1953 68.25 44.4609C68.0417 44.7266 67.8776 45.0312 67.7578 45.375C67.6432 45.7135 67.5859 46.0729 67.5859 46.4531Z" fill="#0D0D0C"/>
<path d="M61.5078 51.1562C60.9193 51.1562 60.3854 51.0573 59.9062 50.8594C59.4323 50.6562 59.0234 50.3724 58.6797 50.0078C58.3411 49.6432 58.0807 49.2109 57.8984 48.7109C57.7161 48.2109 57.625 47.6641 57.625 47.0703V46.7422C57.625 46.0547 57.7266 45.4427 57.9297 44.9062C58.1328 44.3646 58.4089 43.9062 58.7578 43.5312C59.1068 43.1562 59.5026 42.8724 59.9453 42.6797C60.388 42.487 60.8464 42.3906 61.3203 42.3906C61.9245 42.3906 62.4453 42.4948 62.8828 42.7031C63.3255 42.9115 63.6875 43.2031 63.9688 43.5781C64.25 43.9479 64.4583 44.3854 64.5938 44.8906C64.7292 45.3906 64.7969 45.9375 64.7969 46.5312V47.1797H58.4844V46H63.3516V45.8906C63.3307 45.5156 63.2526 45.151 63.1172 44.7969C62.987 44.4427 62.7786 44.151 62.4922 43.9219C62.2057 43.6927 61.8151 43.5781 61.3203 43.5781C60.9922 43.5781 60.6901 43.6484 60.4141 43.7891C60.138 43.9245 59.901 44.1276 59.7031 44.3984C59.5052 44.6693 59.3516 45 59.2422 45.3906C59.1328 45.7812 59.0781 46.2318 59.0781 46.7422V47.0703C59.0781 47.4714 59.1328 47.849 59.2422 48.2031C59.3568 48.5521 59.5208 48.8594 59.7344 49.125C59.9531 49.3906 60.2161 49.599 60.5234 49.75C60.8359 49.901 61.1901 49.9766 61.5859 49.9766C62.0964 49.9766 62.5286 49.8724 62.8828 49.6641C63.237 49.4557 63.5469 49.1771 63.8125 48.8281L64.6875 49.5234C64.5052 49.7995 64.2734 50.0625 63.9922 50.3125C63.7109 50.5625 63.3646 50.7656 62.9531 50.9219C62.5469 51.0781 62.0651 51.1562 61.5078 51.1562Z" fill="#0D0D0C"/>
<path d="M45.4062 44.2266V51H43.9531V42.5469H45.3281L45.4062 44.2266ZM45.1094 46.4531L44.4375 46.4297C44.4427 45.8516 44.5182 45.3177 44.6641 44.8281C44.8099 44.3333 45.026 43.9036 45.3125 43.5391C45.599 43.1745 45.9557 42.8932 46.3828 42.6953C46.8099 42.4922 47.3047 42.3906 47.8672 42.3906C48.263 42.3906 48.6276 42.4479 48.9609 42.5625C49.2943 42.6719 49.5833 42.8464 49.8281 43.0859C50.0729 43.3255 50.263 43.6328 50.3984 44.0078C50.5339 44.3828 50.6016 44.8359 50.6016 45.3672V51H49.1562V45.4375C49.1562 44.9948 49.0807 44.6406 48.9297 44.375C48.7839 44.1094 48.5755 43.9167 48.3047 43.7969C48.0339 43.6719 47.7161 43.6094 47.3516 43.6094C46.9245 43.6094 46.5677 43.6849 46.2812 43.8359C45.9948 43.987 45.7656 44.1953 45.5938 44.4609C45.4219 44.7266 45.2969 45.0312 45.2188 45.375C45.1458 45.7135 45.1094 46.0729 45.1094 46.4531ZM50.5859 45.6562L49.6172 45.9531C49.6224 45.4896 49.6979 45.0443 49.8438 44.6172C49.9948 44.1901 50.2109 43.8099 50.4922 43.4766C50.7786 43.1432 51.1302 42.8802 51.5469 42.6875C51.9635 42.4896 52.4401 42.3906 52.9766 42.3906C53.4297 42.3906 53.8307 42.4505 54.1797 42.5703C54.5339 42.6901 54.8307 42.875 55.0703 43.125C55.3151 43.3698 55.5 43.6849 55.625 44.0703C55.75 44.4557 55.8125 44.9141 55.8125 45.4453V51H54.3594V45.4297C54.3594 44.9557 54.2839 44.5885 54.1328 44.3281C53.987 44.0625 53.7786 43.8776 53.5078 43.7734C53.2422 43.6641 52.9245 43.6094 52.5547 43.6094C52.237 43.6094 51.9557 43.6641 51.7109 43.7734C51.4661 43.8828 51.2604 44.0339 51.0938 44.2266C50.9271 44.4141 50.7995 44.6302 50.7109 44.875C50.6276 45.1198 50.5859 45.3802 50.5859 45.6562Z" fill="#0D0D0C"/>
<path d="M41.6484 42.5469V51H40.1953V42.5469H41.6484ZM40.0859 40.3047C40.0859 40.0703 40.1562 39.8724 40.2969 39.7109C40.4427 39.5495 40.6562 39.4688 40.9375 39.4688C41.2135 39.4688 41.4245 39.5495 41.5703 39.7109C41.7214 39.8724 41.7969 40.0703 41.7969 40.3047C41.7969 40.5286 41.7214 40.7214 41.5703 40.8828C41.4245 41.0391 41.2135 41.1172 40.9375 41.1172C40.6562 41.1172 40.4427 41.0391 40.2969 40.8828C40.1562 40.7214 40.0859 40.5286 40.0859 40.3047Z" fill="#0D0D0C"/>
<path d="M36.1016 43.875V51H34.6562V42.5469H36.0625L36.1016 43.875ZM38.7422 42.5L38.7344 43.8438C38.6146 43.8177 38.5 43.8021 38.3906 43.7969C38.2865 43.7865 38.1667 43.7812 38.0312 43.7812C37.6979 43.7812 37.4036 43.8333 37.1484 43.9375C36.8932 44.0417 36.6771 44.1875 36.5 44.375C36.3229 44.5625 36.1823 44.7865 36.0781 45.0469C35.9792 45.3021 35.9141 45.5833 35.8828 45.8906L35.4766 46.125C35.4766 45.6146 35.526 45.1354 35.625 44.6875C35.7292 44.2396 35.888 43.8438 36.1016 43.5C36.3151 43.151 36.5859 42.8802 36.9141 42.6875C37.2474 42.4896 37.6432 42.3906 38.1016 42.3906C38.2057 42.3906 38.3255 42.4036 38.4609 42.4297C38.5964 42.4505 38.6901 42.474 38.7422 42.5Z" fill="#0D0D0C"/>
<path d="M29.6797 51.1562C29.0911 51.1562 28.5573 51.0573 28.0781 50.8594C27.6042 50.6562 27.1953 50.3724 26.8516 50.0078C26.513 49.6432 26.2526 49.2109 26.0703 48.7109C25.888 48.2109 25.7969 47.6641 25.7969 47.0703V46.7422C25.7969 46.0547 25.8984 45.4427 26.1016 44.9062C26.3047 44.3646 26.5807 43.9062 26.9297 43.5312C27.2786 43.1562 27.6745 42.8724 28.1172 42.6797C28.5599 42.487 29.0182 42.3906 29.4922 42.3906C30.0964 42.3906 30.6172 42.4948 31.0547 42.7031C31.4974 42.9115 31.8594 43.2031 32.1406 43.5781C32.4219 43.9479 32.6302 44.3854 32.7656 44.8906C32.901 45.3906 32.9688 45.9375 32.9688 46.5312V47.1797H26.6562V46H31.5234V45.8906C31.5026 45.5156 31.4245 45.151 31.2891 44.7969C31.1589 44.4427 30.9505 44.151 30.6641 43.9219C30.3776 43.6927 29.987 43.5781 29.4922 43.5781C29.1641 43.5781 28.862 43.6484 28.5859 43.7891C28.3099 43.9245 28.0729 44.1276 27.875 44.3984C27.6771 44.6693 27.5234 45 27.4141 45.3906C27.3047 45.7812 27.25 46.2318 27.25 46.7422V47.0703C27.25 47.4714 27.3047 47.849 27.4141 48.2031C27.5286 48.5521 27.6927 48.8594 27.9062 49.125C28.125 49.3906 28.388 49.599 28.6953 49.75C29.0078 49.901 29.362 49.9766 29.7578 49.9766C30.2682 49.9766 30.7005 49.8724 31.0547 49.6641C31.4089 49.4557 31.7188 49.1771 31.9844 48.8281L32.8594 49.5234C32.6771 49.7995 32.4453 50.0625 32.1641 50.3125C31.8828 50.5625 31.5365 50.7656 31.125 50.9219C30.7188 51.0781 30.237 51.1562 29.6797 51.1562Z" fill="#0D0D0C"/>
<path d="M18.6328 44.1719V54.25H17.1797V42.5469H18.5078L18.6328 44.1719ZM24.3281 46.7031V46.8672C24.3281 47.4818 24.2552 48.0521 24.1094 48.5781C23.9635 49.099 23.75 49.5521 23.4688 49.9375C23.1927 50.3229 22.8516 50.6224 22.4453 50.8359C22.0391 51.0495 21.5729 51.1562 21.0469 51.1562C20.5104 51.1562 20.0365 51.0677 19.625 50.8906C19.2135 50.7135 18.8646 50.4557 18.5781 50.1172C18.2917 49.7786 18.0625 49.3724 17.8906 48.8984C17.724 48.4245 17.6094 47.8906 17.5469 47.2969V46.4219C17.6094 45.7969 17.7266 45.237 17.8984 44.7422C18.0703 44.2474 18.2969 43.8255 18.5781 43.4766C18.8646 43.1224 19.2109 42.8542 19.6172 42.6719C20.0234 42.4844 20.4922 42.3906 21.0234 42.3906C21.5547 42.3906 22.026 42.4948 22.4375 42.7031C22.849 42.9062 23.1953 43.1979 23.4766 43.5781C23.7578 43.9583 23.9688 44.4141 24.1094 44.9453C24.2552 45.4714 24.3281 46.0573 24.3281 46.7031ZM22.875 46.8672V46.7031C22.875 46.2812 22.8307 45.8854 22.7422 45.5156C22.6536 45.1406 22.5156 44.8125 22.3281 44.5312C22.1458 44.2448 21.9115 44.0208 21.625 43.8594C21.3385 43.6927 20.9974 43.6094 20.6016 43.6094C20.237 43.6094 19.9193 43.6719 19.6484 43.7969C19.3828 43.9219 19.1562 44.0911 18.9688 44.3047C18.7812 44.513 18.6276 44.7526 18.5078 45.0234C18.3932 45.2891 18.3073 45.5651 18.25 45.8516V47.875C18.3542 48.2396 18.5 48.5833 18.6875 48.9062C18.875 49.224 19.125 49.4818 19.4375 49.6797C19.75 49.8724 20.1432 49.9688 20.6172 49.9688C21.0078 49.9688 21.3438 49.888 21.625 49.7266C21.9115 49.5599 22.1458 49.3333 22.3281 49.0469C22.5156 48.7604 22.6536 48.4323 22.7422 48.0625C22.8307 47.6875 22.875 47.2891 22.875 46.8672Z" fill="#0D0D0C"/>
<path d="M10.2266 42.5469L12.0781 45.625L13.9531 42.5469H15.6484L12.8828 46.7188L15.7344 51H14.0625L12.1094 47.8281L10.1562 51H8.47656L11.3203 46.7188L8.5625 42.5469H10.2266Z" fill="#0D0D0C"/>
<path d="M7.60156 49.7734V51H1.57812V49.7734H7.60156ZM1.88281 39.625V51H0.375V39.625H1.88281ZM6.80469 44.5156V45.7422H1.57812V44.5156H6.80469ZM7.52344 39.625V40.8594H1.57812V39.625H7.52344Z" fill="#0D0D0C"/>
<path d="M47.7279 1.75C47.9204 1.41667 48.4015 1.41666 48.5939 1.75L64.6913 29.6315C64.8838 29.9648 64.6432 30.3815 64.2583 30.3815H32.0635C31.6786 30.3815 31.4381 29.9648 31.6305 29.6315L47.7279 1.75L47.2949 1.5L47.7279 1.75Z" stroke="#231F20" stroke-opacity="0.5"/>
<rect x="25" y="18.788" width="15.6692" height="1.11285" rx="0.556424" transform="rotate(-16 25 18.788)" fill="#231F20" fill-opacity="0.5"/>
<rect x="39.8145" y="14.4931" width="15.8852" height="1.11285" rx="0.556424" transform="rotate(-8.151 39.8145 14.4931)" fill="#FF6C58"/>
<rect x="54.5039" y="12.2413" width="16.7842" height="1.11285" rx="0.556424" transform="rotate(11.4097 54.5039 12.2413)" fill="#FF6C58"/>
<rect x="39.8145" y="14.467" width="16.6927" height="1.11285" rx="0.556424" fill="#FFD95B"/>
<rect x="55.708" y="14.467" width="15.8745" height="1.11285" rx="0.556424" transform="rotate(16.28 55.708 14.467)" fill="#FFD95B"/>
<rect x="39.9541" y="14.5974" width="17.7851" height="1.11285" rx="0.556424" transform="rotate(7.6291 39.9541 14.5974)" fill="#45F44A"/>
<rect x="56.9512" y="16.6927" width="15.3224" height="1.11285" rx="0.556424" transform="rotate(23.5226 56.9512 16.6927)" fill="#45F44A"/>
<rect x="40.2021" y="14.4518" width="19.332" height="1.11285" rx="0.556424" transform="rotate(13.6597 40.2021 14.4518)" fill="#5A9BF8"/>
<rect x="58.1855" y="18.9184" width="14.7523" height="1.11285" rx="0.556424" transform="rotate(30.5176 58.1855 18.9184)" fill="#5A9BF8"/>
</svg>
